<mxfile host="Electron" agent="Mozilla/5.0 (Windows NT 10.0; Win64; x64) AppleWebKit/537.36 (KHTML, like Gecko) draw.io/24.7.17 Chrome/128.0.6613.36 Electron/32.0.1 Safari/537.36" version="24.7.17">
  <diagram id="C5RBs43oDa-KdzZeNtuy" name="Page-1">
    <mxGraphModel dx="1401" dy="1507" grid="1" gridSize="10" guides="1" tooltips="1" connect="1" arrows="1" fold="1" page="1" pageScale="1" pageWidth="827" pageHeight="1169" math="0" shadow="0">
      <root>
        <mxCell id="WIyWlLk6GJQsqaUBKTNV-0" />
        <mxCell id="WIyWlLk6GJQsqaUBKTNV-1" parent="WIyWlLk6GJQsqaUBKTNV-0" />
        <mxCell id="uH51vlNa56T1xQwsgE3n-74" value="&lt;p class=&quot;MsoNormal&quot; style=&quot;font-size: 12px;&quot;&gt;&lt;font style=&quot;font-size: 12px;&quot;&gt;Product Functions:&lt;/font&gt;&lt;/p&gt;&lt;ul type=&quot;disc&quot; style=&quot;font-size: 12px;&quot;&gt; &lt;li class=&quot;MsoNormal&quot; style=&quot;font-size: 12px;&quot;&gt;&lt;span style=&quot;background-image: initial; background-position: initial; background-size: initial; background-repeat: initial; background-attachment: initial; background-origin: initial; background-clip: initial; font-size: 12px;&quot;&gt;&lt;font style=&quot;font-size: 12px;&quot;&gt;User management (Instructors, Students):&lt;/font&gt;&lt;/span&gt;&lt;/li&gt;&lt;ul type=&quot;disc&quot; style=&quot;font-size: 12px;&quot;&gt;&lt;li class=&quot;MsoNormal&quot; style=&quot;font-size: 12px;&quot;&gt;Instructor Registration/Login&lt;span style=&quot;background-color: initial;&quot;&gt;: Instructors can register and log in to the system.&lt;/span&gt;&lt;/li&gt;&lt;li class=&quot;MsoNormal&quot; style=&quot;font-size: 12px;&quot;&gt;&lt;font style=&quot;font-size: 12px;&quot;&gt;Student Registration/Login: Students can register and log in to the system.&lt;/font&gt;&lt;/li&gt;&lt;/ul&gt;&lt;/ul&gt;" style="text;whiteSpace=wrap;html=1;fontColor=#FFFFFF;fontSize=12;fontFamily=Times New Roman;fontStyle=0;verticalAlign=middle;" parent="WIyWlLk6GJQsqaUBKTNV-1" vertex="1">
          <mxGeometry x="750" y="-740" width="460" height="70" as="geometry" />
        </mxCell>
        <mxCell id="uH51vlNa56T1xQwsgE3n-81" value="&lt;ul type=&quot;disc&quot; style=&quot;font-size: 12px;&quot;&gt;&lt;li class=&quot;MsoNormal&quot; style=&quot;font-size: 12px;&quot;&gt;&lt;span style=&quot;background-image: initial; background-position: initial; background-size: initial; background-repeat: initial; background-attachment: initial; background-origin: initial; background-clip: initial; font-size: 12px;&quot;&gt;&lt;font style=&quot;font-size: 12px;&quot;&gt;Course management&lt;/font&gt;&lt;/span&gt;&amp;nbsp;for instructor:&lt;/li&gt;&lt;ul type=&quot;disc&quot;&gt;&lt;li class=&quot;MsoNormal&quot; style=&quot;font-size: 12px;&quot;&gt;Create Course&lt;span style=&quot;background-color: initial; font-family: &amp;quot;Times New Roman&amp;quot;, serif;&quot;&gt;: Instructors can create new courses.&lt;/span&gt;&lt;/li&gt;&lt;li class=&quot;MsoNormal&quot; style=&quot;font-size: 12px;&quot;&gt;Edit Course&lt;span style=&quot;background-color: initial; font-family: &amp;quot;Times New Roman&amp;quot;, serif;&quot;&gt;: Instructors can edit course details.&lt;/span&gt;&lt;/li&gt;&lt;li class=&quot;MsoNormal&quot; style=&quot;font-size: 12px;&quot;&gt;Delete Course&lt;span style=&quot;background-color: initial; font-family: &amp;quot;Times New Roman&amp;quot;, serif;&quot;&gt;: Instructors can delete courses.&lt;/span&gt;&lt;/li&gt;&lt;li class=&quot;MsoNormal&quot; style=&quot;font-size: 12px;&quot;&gt;&lt;font color=&quot;#ff0000&quot;&gt;Enroll Student&lt;span style=&quot;background-color: initial; font-family: &amp;quot;Times New Roman&amp;quot;, serif;&quot;&gt;: Students can enroll in courses.&lt;/span&gt;&lt;/font&gt;&lt;/li&gt;&lt;/ul&gt;&lt;/ul&gt;" style="text;whiteSpace=wrap;html=1;fontColor=#FFFFFF;fontSize=12;fontFamily=Times New Roman;fontStyle=0;verticalAlign=middle;" parent="WIyWlLk6GJQsqaUBKTNV-1" vertex="1">
          <mxGeometry x="750" y="-660" width="430" height="69" as="geometry" />
        </mxCell>
        <mxCell id="uH51vlNa56T1xQwsgE3n-82" value="&lt;ul type=&quot;disc&quot; style=&quot;font-size: 12px;&quot;&gt;&lt;li class=&quot;MsoNormal&quot; style=&quot;font-size: 12px;&quot;&gt;&lt;span style=&quot;background-color: initial;&quot;&gt;Question management&amp;nbsp;for instructor:&lt;/span&gt;&lt;ul type=&quot;disc&quot;&gt;&lt;li style=&quot;mso-margin-top-alt:auto;mso-margin-bottom-alt:auto;&lt;br/&gt;     line-height:normal;mso-list:l0 level1 lfo1;tab-stops:list 36.0pt&quot; class=&quot;MsoNormal&quot;&gt;&lt;span style=&quot;font-family: &amp;quot;Times New Roman&amp;quot;, serif;&quot;&gt;Add Question&lt;/span&gt;&lt;span style=&quot;font-family: &amp;quot;Times New Roman&amp;quot;, serif;&quot;&gt;: Instructors can add questions to quizzes.&lt;/span&gt;&lt;/li&gt;&lt;li style=&quot;mso-margin-top-alt:auto;mso-margin-bottom-alt:auto;&lt;br/&gt;     line-height:normal;mso-list:l0 level1 lfo1;tab-stops:list 36.0pt&quot; class=&quot;MsoNormal&quot;&gt;&lt;span style=&quot;font-family: &amp;quot;Times New Roman&amp;quot;, serif;&quot;&gt;Edit Question&lt;/span&gt;&lt;span style=&quot;font-family: &amp;quot;Times New Roman&amp;quot;, serif;&quot;&gt;: Instructors can edit questions.&lt;/span&gt;&lt;/li&gt;&lt;li style=&quot;mso-margin-top-alt:auto;mso-margin-bottom-alt:auto;&lt;br/&gt;     line-height:normal;mso-list:l0 level1 lfo1;tab-stops:list 36.0pt&quot; class=&quot;MsoNormal&quot;&gt;&lt;span style=&quot;font-family: &amp;quot;Times New Roman&amp;quot;, serif;&quot;&gt;Delete Question&lt;/span&gt;&lt;span style=&quot;font-family: &amp;quot;Times New Roman&amp;quot;, serif;&quot;&gt;: Instructors can delete questions.&lt;/span&gt;&lt;/li&gt;&lt;/ul&gt;&lt;/li&gt;&lt;/ul&gt;" style="text;whiteSpace=wrap;html=1;fontColor=#FFFFFF;fontSize=12;fontFamily=Times New Roman;fontStyle=0;verticalAlign=middle;" parent="WIyWlLk6GJQsqaUBKTNV-1" vertex="1">
          <mxGeometry x="750" y="-500" width="360" height="60" as="geometry" />
        </mxCell>
        <mxCell id="uH51vlNa56T1xQwsgE3n-99" value="&lt;ul type=&quot;disc&quot;&gt;&lt;li class=&quot;MsoNormal&quot;&gt;&lt;span style=&quot;background-image: initial; background-position: initial; background-size: initial; background-repeat: initial; background-attachment: initial; background-origin: initial; background-clip: initial;&quot;&gt;Quiz management&amp;nbsp;for instructor:&lt;/span&gt;&lt;ul type=&quot;disc&quot;&gt;&lt;li class=&quot;MsoNormal&quot;&gt;&lt;span style=&quot;font-family: &amp;quot;Times New Roman&amp;quot;, serif;&quot;&gt;Create Quiz&lt;/span&gt;&lt;span style=&quot;font-family: &amp;quot;Times New Roman&amp;quot;, serif;&quot;&gt;: Instructors can create quizzes for their courses.&lt;/span&gt;&lt;/li&gt;&lt;li class=&quot;MsoNormal&quot;&gt;&lt;span style=&quot;font-family: &amp;quot;Times New Roman&amp;quot;, serif;&quot;&gt;Edit Quiz&lt;/span&gt;&lt;span style=&quot;font-family: &amp;quot;Times New Roman&amp;quot;, serif;&quot;&gt;: Instructors can edit quiz details.&lt;/span&gt;&lt;/li&gt;&lt;li class=&quot;MsoNormal&quot;&gt;&lt;span style=&quot;font-family: &amp;quot;Times New Roman&amp;quot;, serif;&quot;&gt;Delete Quiz&lt;/span&gt;&lt;span style=&quot;font-family: &amp;quot;Times New Roman&amp;quot;, serif;&quot;&gt;: Instructors can delete quizzes.&lt;/span&gt;&lt;/li&gt;&lt;/ul&gt;&lt;/li&gt;&lt;/ul&gt;" style="text;whiteSpace=wrap;html=1;fontColor=#FFFFFF;fontSize=12;fontFamily=Times New Roman;fontStyle=0;verticalAlign=middle;" parent="WIyWlLk6GJQsqaUBKTNV-1" vertex="1">
          <mxGeometry x="750" y="-580" width="390" height="59" as="geometry" />
        </mxCell>
        <mxCell id="uH51vlNa56T1xQwsgE3n-101" value="&lt;ul type=&quot;disc&quot; style=&quot;font-size: 12px;&quot;&gt;&lt;li class=&quot;MsoNormal&quot; style=&quot;font-size: 12px;&quot;&gt;&lt;span style=&quot;background-color: initial;&quot;&gt;Choice&amp;nbsp;management&amp;nbsp;for instructor:&amp;nbsp;&lt;/span&gt;&lt;ul type=&quot;disc&quot;&gt; &lt;li style=&quot;mso-margin-top-alt:auto;mso-margin-bottom-alt:auto;&lt;br/&gt;     line-height:normal;mso-list:l0 level1 lfo1;tab-stops:list 36.0pt&quot; class=&quot;MsoNormal&quot;&gt;&lt;span style=&quot;font-family: &amp;quot;Times New Roman&amp;quot;, serif;&quot;&gt;Add Choice&lt;/span&gt;&lt;span style=&quot;font-family: &amp;quot;Times New Roman&amp;quot;, serif;&quot;&gt;: Instructors can add choices to questions.&lt;/span&gt;&lt;/li&gt;&lt;li style=&quot;mso-margin-top-alt:auto;mso-margin-bottom-alt:auto;&lt;br/&gt;     line-height:normal;mso-list:l0 level1 lfo1;tab-stops:list 36.0pt&quot; class=&quot;MsoNormal&quot;&gt;&lt;span style=&quot;font-family: &amp;quot;Times New Roman&amp;quot;, serif;&quot;&gt;Edit Choice&lt;/span&gt;&lt;span style=&quot;font-family: &amp;quot;Times New Roman&amp;quot;, serif;&quot;&gt;: Instructors can edit choices.&lt;/span&gt;&lt;/li&gt;&lt;li style=&quot;mso-margin-top-alt:auto;mso-margin-bottom-alt:auto;&lt;br/&gt;     line-height:normal;mso-list:l0 level1 lfo1;tab-stops:list 36.0pt&quot; class=&quot;MsoNormal&quot;&gt;&lt;span style=&quot;font-family: &amp;quot;Times New Roman&amp;quot;, serif;&quot;&gt;Delete Choice&lt;/span&gt;&lt;span style=&quot;font-family: &amp;quot;Times New Roman&amp;quot;, serif;&quot;&gt;: Instructors can delete choices.&lt;/span&gt;&lt;/li&gt;&lt;/ul&gt;&lt;/li&gt;&lt;/ul&gt;" style="text;whiteSpace=wrap;html=1;fontColor=#FFFFFF;fontSize=12;fontFamily=Times New Roman;fontStyle=0;verticalAlign=middle;" parent="WIyWlLk6GJQsqaUBKTNV-1" vertex="1">
          <mxGeometry x="750" y="-430" width="600" height="60" as="geometry" />
        </mxCell>
        <mxCell id="uH51vlNa56T1xQwsgE3n-102" value="&lt;ul type=&quot;disc&quot; style=&quot;font-size: 12px;&quot;&gt;&lt;li class=&quot;MsoNormal&quot;&gt;&lt;span style=&quot;background-image: initial; background-position: initial; background-size: initial; background-repeat: initial; background-attachment: initial; background-origin: initial; background-clip: initial;&quot;&gt;Quiz participation for students&lt;/span&gt;:&lt;ul type=&quot;disc&quot;&gt; &lt;li style=&quot;mso-margin-top-alt:auto;mso-margin-bottom-alt:auto;&lt;br/&gt;     line-height:normal;mso-list:l0 level1 lfo1;tab-stops:list 36.0pt&quot; class=&quot;MsoNormal&quot;&gt;&lt;span style=&quot;font-family: &amp;quot;Times New Roman&amp;quot;, serif;&quot;&gt;Take Quiz&lt;/span&gt;&lt;span style=&quot;&quot;&gt;: Students can take quizzes assigned to their courses.&lt;/span&gt;&lt;/li&gt;&lt;li style=&quot;mso-margin-top-alt:auto;mso-margin-bottom-alt:auto;&lt;br/&gt;     line-height:normal;mso-list:l0 level1 lfo1;tab-stops:list 36.0pt&quot; class=&quot;MsoNormal&quot;&gt;Submit Quiz&lt;span style=&quot;background-color: initial;&quot;&gt;:&amp;nbsp;&lt;/span&gt;Students can submit completed quizzes.&lt;/li&gt;&lt;/ul&gt;&lt;/li&gt;&lt;/ul&gt;" style="text;whiteSpace=wrap;html=1;fontColor=#FFFFFF;fontSize=12;fontFamily=Times New Roman;fontStyle=0;verticalAlign=middle;" parent="WIyWlLk6GJQsqaUBKTNV-1" vertex="1">
          <mxGeometry x="750" y="-360" width="600" height="40" as="geometry" />
        </mxCell>
        <mxCell id="uH51vlNa56T1xQwsgE3n-103" value="&lt;ul type=&quot;disc&quot; style=&quot;font-size: 12px;&quot;&gt;&lt;li class=&quot;MsoNormal&quot;&gt;&lt;span style=&quot;background-image: initial; background-position: initial; background-size: initial; background-repeat: initial; background-attachment: initial; background-origin: initial; background-clip: initial;&quot;&gt;Result evaluation and feedback&lt;/span&gt;:&lt;ul type=&quot;disc&quot;&gt; &lt;li style=&quot;mso-margin-top-alt:auto;mso-margin-bottom-alt:auto;&lt;br/&gt;     line-height:normal;mso-list:l0 level1 lfo1;tab-stops:list 36.0pt&quot; class=&quot;MsoNormal&quot;&gt;&lt;span style=&quot;font-family: &amp;quot;Times New Roman&amp;quot;, serif;&quot;&gt;Evaluate Quiz&lt;/span&gt;&lt;span style=&quot;font-family: &amp;quot;Times New Roman&amp;quot;, serif;&quot;&gt;: System evaluates the submitted quizzes and provides results.&lt;/span&gt;&lt;/li&gt;&lt;li style=&quot;mso-margin-top-alt:auto;mso-margin-bottom-alt:auto;&lt;br/&gt;     line-height:normal;mso-list:l0 level1 lfo1;tab-stops:list 36.0pt&quot; class=&quot;MsoNormal&quot;&gt;&lt;span style=&quot;font-family: &amp;quot;Times New Roman&amp;quot;, serif;&quot;&gt;View Results&lt;/span&gt;&lt;span style=&quot;font-family: &amp;quot;Times New Roman&amp;quot;, serif;&quot;&gt;: Students and instructors can view quiz results.&lt;/span&gt;&lt;/li&gt;&lt;/ul&gt;&lt;/li&gt;&lt;/ul&gt;" style="text;whiteSpace=wrap;html=1;fontColor=#FFFFFF;fontSize=12;fontFamily=Times New Roman;fontStyle=0;verticalAlign=middle;" parent="WIyWlLk6GJQsqaUBKTNV-1" vertex="1">
          <mxGeometry x="750" y="-310" width="600" height="50" as="geometry" />
        </mxCell>
        <mxCell id="uH51vlNa56T1xQwsgE3n-104" value="&lt;p class=&quot;MsoNormal&quot; style=&quot;&quot;&gt;&lt;font style=&quot;font-size: 12px;&quot;&gt;Instructor:&lt;/font&gt;&lt;/p&gt;&lt;p class=&quot;MsoNormal&quot; style=&quot;&quot;&gt;&lt;/p&gt;&lt;ul&gt;&lt;li&gt;&lt;font style=&quot;font-size: 12px;&quot;&gt;&lt;span style=&quot;background-color: initial; font-family: &amp;quot;Times New Roman&amp;quot;, serif; text-indent: -18pt;&quot;&gt;Each &lt;/span&gt;&lt;span style=&quot;background-color: initial; font-family: &amp;quot;Times New Roman&amp;quot;, serif; text-indent: -18pt;&quot;&gt;instructor can view courses, questions and exams he created only.&lt;/span&gt;&lt;/font&gt;&lt;/li&gt;&lt;li&gt;&lt;font style=&quot;font-size: 12px;&quot;&gt;When creating a question, instructor can determine its level (simple, medium, hard).&lt;/font&gt;&lt;/li&gt;&lt;li&gt;&lt;font style=&quot;font-size: 12px;&quot;&gt;Instructor can use the same question in multiple exams.&lt;/font&gt;&lt;/li&gt;&lt;li&gt;Instructor should assign a student to a course first, then he can assign exams to him in that course.&lt;/li&gt;&lt;/ul&gt;&lt;p&gt;&lt;/p&gt;" style="text;whiteSpace=wrap;html=1;fontColor=#FFFFFF;fontSize=12;fontFamily=Times New Roman;fontStyle=0;verticalAlign=middle;" parent="WIyWlLk6GJQsqaUBKTNV-1" vertex="1">
          <mxGeometry x="1230" y="-670" width="540" height="90" as="geometry" />
        </mxCell>
        <mxCell id="uH51vlNa56T1xQwsgE3n-105" value="&lt;p class=&quot;MsoNormal&quot; style=&quot;&quot;&gt;&lt;font style=&quot;font-size: 12px;&quot;&gt;Exam:&lt;/font&gt;&lt;/p&gt;&lt;p class=&quot;MsoNormal&quot; style=&quot;&quot;&gt;&lt;/p&gt;&lt;ul&gt;&lt;li&gt;&lt;span style=&quot;background-color: initial; text-indent: -18pt;&quot;&gt;Exam has two types (Quiz / Final).&lt;/span&gt;&lt;/li&gt;&lt;li&gt;When creating an exam, instructor can determine the number of questions.&lt;/li&gt;&lt;li&gt;&lt;span style=&quot;line-height: 107%; font-family: &amp;quot;Times New Roman&amp;quot;, serif;&quot;&gt;&lt;font style=&quot;font-size: 12px;&quot;&gt;When creating an exam, instructor may choose to manually assign questions to the exam or the system assign them automatically.&lt;/font&gt;&lt;/span&gt;&lt;br&gt;&lt;/li&gt;&lt;li&gt;&lt;span style=&quot;line-height: 107%; font-family: &amp;quot;Times New Roman&amp;quot;, serif;&quot;&gt;&lt;font style=&quot;&quot;&gt;&lt;span style=&quot;line-height: 107%;&quot;&gt;&lt;font style=&quot;font-size: 12px;&quot;&gt;If the exam is automatically created, the system should balance number of questions with the their level (simple, medium, hard)&lt;/font&gt;&lt;/span&gt;&lt;br&gt;&lt;/font&gt;&lt;/span&gt;&lt;/li&gt;&lt;/ul&gt;&lt;p&gt;&lt;/p&gt;&lt;p&gt;&lt;/p&gt;" style="text;whiteSpace=wrap;html=1;fontColor=#FFFFFF;fontSize=12;fontFamily=Times New Roman;fontStyle=0;verticalAlign=middle;" parent="WIyWlLk6GJQsqaUBKTNV-1" vertex="1">
          <mxGeometry x="1220" y="-460" width="830" height="90" as="geometry" />
        </mxCell>
        <mxCell id="uH51vlNa56T1xQwsgE3n-106" value="&lt;p class=&quot;MsoNormal&quot; style=&quot;&quot;&gt;&lt;font style=&quot;font-size: 12px;&quot;&gt;Student:&lt;/font&gt;&lt;/p&gt;&lt;ul&gt;&lt;li&gt;&lt;span style=&quot;font-family: &amp;quot;Times New Roman&amp;quot;, serif; text-indent: -18pt; background-color: initial;&quot;&gt;Student&amp;nbsp;&lt;/span&gt;&lt;span style=&quot;font-family: &amp;quot;Times New Roman&amp;quot;, serif; text-indent: -18pt; background-color: initial;&quot;&gt;can take exams for the courses and exams he assigned to only.&lt;/span&gt;&lt;/li&gt;&lt;li&gt;Student can take many quiz exams, but he can take only one final exam.&lt;/li&gt;&lt;/ul&gt;&lt;p&gt;&lt;/p&gt;&lt;p&gt;&lt;/p&gt;" style="text;whiteSpace=wrap;html=1;fontColor=#FFFFFF;fontSize=12;fontFamily=Times New Roman;fontStyle=0;verticalAlign=middle;" parent="WIyWlLk6GJQsqaUBKTNV-1" vertex="1">
          <mxGeometry x="1240" y="-569" width="540" height="59" as="geometry" />
        </mxCell>
        <mxCell id="uH51vlNa56T1xQwsgE3n-107" value="&lt;p class=&quot;MsoNormal&quot; style=&quot;&quot;&gt;&lt;font style=&quot;font-size: 12px;&quot;&gt;Result:&lt;/font&gt;&lt;/p&gt;&lt;p class=&quot;MsoNormal&quot; style=&quot;&quot;&gt;&lt;/p&gt;&lt;ul&gt;&lt;li&gt;&lt;span style=&quot;line-height: 107%; font-family: &amp;quot;Times New Roman&amp;quot;, serif;&quot;&gt;Student can view his result upon completion of the exam.&lt;/span&gt;&lt;/li&gt;&lt;li&gt;&lt;span style=&quot;line-height: 107%; font-family: &amp;quot;Times New Roman&amp;quot;, serif;&quot;&gt;&lt;span style=&quot;line-height: 107%;&quot;&gt;&lt;font style=&quot;font-size: 12px;&quot;&gt;Instructor can view results for all students in the exam.&lt;/font&gt;&lt;/span&gt;&lt;br&gt;&lt;/span&gt;&lt;/li&gt;&lt;/ul&gt;&lt;p&gt;&lt;/p&gt;&lt;p&gt;&lt;/p&gt;" style="text;whiteSpace=wrap;html=1;fontColor=#FFFFFF;fontSize=12;fontFamily=Times New Roman;fontStyle=0;verticalAlign=middle;" parent="WIyWlLk6GJQsqaUBKTNV-1" vertex="1">
          <mxGeometry x="1230" y="-300" width="830" height="60" as="geometry" />
        </mxCell>
        <mxCell id="j6owaacCCFAsNgO6bkA7-32" value="Instructor" style="shape=table;startSize=30;container=1;collapsible=1;childLayout=tableLayout;fixedRows=1;rowLines=0;fontStyle=1;align=center;resizeLast=1;html=1;" parent="WIyWlLk6GJQsqaUBKTNV-1" vertex="1" collapsed="1">
          <mxGeometry x="-805" y="-714" width="90" height="30" as="geometry">
            <mxRectangle x="-805" y="-714" width="180" height="150" as="alternateBounds" />
          </mxGeometry>
        </mxCell>
        <mxCell id="j6owaacCCFAsNgO6bkA7-33" value="" style="shape=tableRow;horizontal=0;startSize=0;swimlaneHead=0;swimlaneBody=0;fillColor=none;collapsible=0;dropTarget=0;points=[[0,0.5],[1,0.5]];portConstraint=eastwest;top=0;left=0;right=0;bottom=1;" parent="j6owaacCCFAsNgO6bkA7-32" vertex="1">
          <mxGeometry y="30" width="180" height="30" as="geometry" />
        </mxCell>
        <mxCell id="j6owaacCCFAsNgO6bkA7-34" value="PK" style="shape=partialRectangle;connectable=0;fillColor=none;top=0;left=0;bottom=0;right=0;fontStyle=1;overflow=hidden;whiteSpace=wrap;html=1;" parent="j6owaacCCFAsNgO6bkA7-33" vertex="1">
          <mxGeometry width="30" height="30" as="geometry">
            <mxRectangle width="30" height="30" as="alternateBounds" />
          </mxGeometry>
        </mxCell>
        <mxCell id="j6owaacCCFAsNgO6bkA7-35" value="UniqueID" style="shape=partialRectangle;connectable=0;fillColor=none;top=0;left=0;bottom=0;right=0;align=left;spacingLeft=6;fontStyle=5;overflow=hidden;whiteSpace=wrap;html=1;" parent="j6owaacCCFAsNgO6bkA7-33" vertex="1">
          <mxGeometry x="30" width="150" height="30" as="geometry">
            <mxRectangle width="150" height="30" as="alternateBounds" />
          </mxGeometry>
        </mxCell>
        <mxCell id="j6owaacCCFAsNgO6bkA7-36" value="" style="shape=tableRow;horizontal=0;startSize=0;swimlaneHead=0;swimlaneBody=0;fillColor=none;collapsible=0;dropTarget=0;points=[[0,0.5],[1,0.5]];portConstraint=eastwest;top=0;left=0;right=0;bottom=0;" parent="j6owaacCCFAsNgO6bkA7-32" vertex="1">
          <mxGeometry y="60" width="180" height="30" as="geometry" />
        </mxCell>
        <mxCell id="j6owaacCCFAsNgO6bkA7-37" value="" style="shape=partialRectangle;connectable=0;fillColor=none;top=0;left=0;bottom=0;right=0;editable=1;overflow=hidden;whiteSpace=wrap;html=1;" parent="j6owaacCCFAsNgO6bkA7-36" vertex="1">
          <mxGeometry width="30" height="30" as="geometry">
            <mxRectangle width="30" height="30" as="alternateBounds" />
          </mxGeometry>
        </mxCell>
        <mxCell id="j6owaacCCFAsNgO6bkA7-38" value="Name" style="shape=partialRectangle;connectable=0;fillColor=none;top=0;left=0;bottom=0;right=0;align=left;spacingLeft=6;overflow=hidden;whiteSpace=wrap;html=1;" parent="j6owaacCCFAsNgO6bkA7-36" vertex="1">
          <mxGeometry x="30" width="150" height="30" as="geometry">
            <mxRectangle width="150" height="30" as="alternateBounds" />
          </mxGeometry>
        </mxCell>
        <mxCell id="j6owaacCCFAsNgO6bkA7-261" value="" style="shape=tableRow;horizontal=0;startSize=0;swimlaneHead=0;swimlaneBody=0;fillColor=none;collapsible=0;dropTarget=0;points=[[0,0.5],[1,0.5]];portConstraint=eastwest;top=0;left=0;right=0;bottom=0;" parent="j6owaacCCFAsNgO6bkA7-32" vertex="1">
          <mxGeometry y="90" width="180" height="30" as="geometry" />
        </mxCell>
        <mxCell id="j6owaacCCFAsNgO6bkA7-262" value="" style="shape=partialRectangle;connectable=0;fillColor=none;top=0;left=0;bottom=0;right=0;editable=1;overflow=hidden;" parent="j6owaacCCFAsNgO6bkA7-261" vertex="1">
          <mxGeometry width="30" height="30" as="geometry">
            <mxRectangle width="30" height="30" as="alternateBounds" />
          </mxGeometry>
        </mxCell>
        <mxCell id="j6owaacCCFAsNgO6bkA7-263" value="Email" style="shape=partialRectangle;connectable=0;fillColor=none;top=0;left=0;bottom=0;right=0;align=left;spacingLeft=6;overflow=hidden;" parent="j6owaacCCFAsNgO6bkA7-261" vertex="1">
          <mxGeometry x="30" width="150" height="30" as="geometry">
            <mxRectangle width="150" height="30" as="alternateBounds" />
          </mxGeometry>
        </mxCell>
        <mxCell id="j6owaacCCFAsNgO6bkA7-264" value="" style="shape=tableRow;horizontal=0;startSize=0;swimlaneHead=0;swimlaneBody=0;fillColor=none;collapsible=0;dropTarget=0;points=[[0,0.5],[1,0.5]];portConstraint=eastwest;top=0;left=0;right=0;bottom=0;" parent="j6owaacCCFAsNgO6bkA7-32" vertex="1">
          <mxGeometry y="120" width="180" height="30" as="geometry" />
        </mxCell>
        <mxCell id="j6owaacCCFAsNgO6bkA7-265" value="" style="shape=partialRectangle;connectable=0;fillColor=none;top=0;left=0;bottom=0;right=0;editable=1;overflow=hidden;" parent="j6owaacCCFAsNgO6bkA7-264" vertex="1">
          <mxGeometry width="30" height="30" as="geometry">
            <mxRectangle width="30" height="30" as="alternateBounds" />
          </mxGeometry>
        </mxCell>
        <mxCell id="j6owaacCCFAsNgO6bkA7-266" value="Password" style="shape=partialRectangle;connectable=0;fillColor=none;top=0;left=0;bottom=0;right=0;align=left;spacingLeft=6;overflow=hidden;" parent="j6owaacCCFAsNgO6bkA7-264" vertex="1">
          <mxGeometry x="30" width="150" height="30" as="geometry">
            <mxRectangle width="150" height="30" as="alternateBounds" />
          </mxGeometry>
        </mxCell>
        <mxCell id="j6owaacCCFAsNgO6bkA7-50" value="Course" style="shape=table;startSize=30;container=1;collapsible=1;childLayout=tableLayout;fixedRows=1;rowLines=0;fontStyle=1;align=center;resizeLast=1;html=1;" parent="WIyWlLk6GJQsqaUBKTNV-1" vertex="1" collapsed="1">
          <mxGeometry x="-615" y="-714" width="80" height="30" as="geometry">
            <mxRectangle x="-650" y="-700" width="180" height="150" as="alternateBounds" />
          </mxGeometry>
        </mxCell>
        <mxCell id="j6owaacCCFAsNgO6bkA7-51" value="" style="shape=tableRow;horizontal=0;startSize=0;swimlaneHead=0;swimlaneBody=0;fillColor=none;collapsible=0;dropTarget=0;points=[[0,0.5],[1,0.5]];portConstraint=eastwest;top=0;left=0;right=0;bottom=1;" parent="j6owaacCCFAsNgO6bkA7-50" vertex="1">
          <mxGeometry y="30" width="180" height="30" as="geometry" />
        </mxCell>
        <mxCell id="j6owaacCCFAsNgO6bkA7-52" value="PK" style="shape=partialRectangle;connectable=0;fillColor=none;top=0;left=0;bottom=0;right=0;fontStyle=1;overflow=hidden;whiteSpace=wrap;html=1;" parent="j6owaacCCFAsNgO6bkA7-51" vertex="1">
          <mxGeometry width="30" height="30" as="geometry">
            <mxRectangle width="30" height="30" as="alternateBounds" />
          </mxGeometry>
        </mxCell>
        <mxCell id="j6owaacCCFAsNgO6bkA7-53" value="UniqueID" style="shape=partialRectangle;connectable=0;fillColor=none;top=0;left=0;bottom=0;right=0;align=left;spacingLeft=6;fontStyle=5;overflow=hidden;whiteSpace=wrap;html=1;" parent="j6owaacCCFAsNgO6bkA7-51" vertex="1">
          <mxGeometry x="30" width="150" height="30" as="geometry">
            <mxRectangle width="150" height="30" as="alternateBounds" />
          </mxGeometry>
        </mxCell>
        <mxCell id="j6owaacCCFAsNgO6bkA7-54" value="" style="shape=tableRow;horizontal=0;startSize=0;swimlaneHead=0;swimlaneBody=0;fillColor=none;collapsible=0;dropTarget=0;points=[[0,0.5],[1,0.5]];portConstraint=eastwest;top=0;left=0;right=0;bottom=0;" parent="j6owaacCCFAsNgO6bkA7-50" vertex="1">
          <mxGeometry y="60" width="180" height="30" as="geometry" />
        </mxCell>
        <mxCell id="j6owaacCCFAsNgO6bkA7-55" value="" style="shape=partialRectangle;connectable=0;fillColor=none;top=0;left=0;bottom=0;right=0;editable=1;overflow=hidden;whiteSpace=wrap;html=1;" parent="j6owaacCCFAsNgO6bkA7-54" vertex="1">
          <mxGeometry width="30" height="30" as="geometry">
            <mxRectangle width="30" height="30" as="alternateBounds" />
          </mxGeometry>
        </mxCell>
        <mxCell id="j6owaacCCFAsNgO6bkA7-56" value="Name" style="shape=partialRectangle;connectable=0;fillColor=none;top=0;left=0;bottom=0;right=0;align=left;spacingLeft=6;overflow=hidden;whiteSpace=wrap;html=1;" parent="j6owaacCCFAsNgO6bkA7-54" vertex="1">
          <mxGeometry x="30" width="150" height="30" as="geometry">
            <mxRectangle width="150" height="30" as="alternateBounds" />
          </mxGeometry>
        </mxCell>
        <mxCell id="j6owaacCCFAsNgO6bkA7-57" value="" style="shape=tableRow;horizontal=0;startSize=0;swimlaneHead=0;swimlaneBody=0;fillColor=none;collapsible=0;dropTarget=0;points=[[0,0.5],[1,0.5]];portConstraint=eastwest;top=0;left=0;right=0;bottom=0;" parent="j6owaacCCFAsNgO6bkA7-50" vertex="1">
          <mxGeometry y="90" width="180" height="30" as="geometry" />
        </mxCell>
        <mxCell id="j6owaacCCFAsNgO6bkA7-58" value="" style="shape=partialRectangle;connectable=0;fillColor=none;top=0;left=0;bottom=0;right=0;editable=1;overflow=hidden;whiteSpace=wrap;html=1;" parent="j6owaacCCFAsNgO6bkA7-57" vertex="1">
          <mxGeometry width="30" height="30" as="geometry">
            <mxRectangle width="30" height="30" as="alternateBounds" />
          </mxGeometry>
        </mxCell>
        <mxCell id="j6owaacCCFAsNgO6bkA7-59" value="Row 2" style="shape=partialRectangle;connectable=0;fillColor=none;top=0;left=0;bottom=0;right=0;align=left;spacingLeft=6;overflow=hidden;whiteSpace=wrap;html=1;" parent="j6owaacCCFAsNgO6bkA7-57" vertex="1">
          <mxGeometry x="30" width="150" height="30" as="geometry">
            <mxRectangle width="150" height="30" as="alternateBounds" />
          </mxGeometry>
        </mxCell>
        <mxCell id="j6owaacCCFAsNgO6bkA7-60" value="" style="shape=tableRow;horizontal=0;startSize=0;swimlaneHead=0;swimlaneBody=0;fillColor=none;collapsible=0;dropTarget=0;points=[[0,0.5],[1,0.5]];portConstraint=eastwest;top=0;left=0;right=0;bottom=0;" parent="j6owaacCCFAsNgO6bkA7-50" vertex="1">
          <mxGeometry y="120" width="180" height="30" as="geometry" />
        </mxCell>
        <mxCell id="j6owaacCCFAsNgO6bkA7-61" value="" style="shape=partialRectangle;connectable=0;fillColor=none;top=0;left=0;bottom=0;right=0;editable=1;overflow=hidden;whiteSpace=wrap;html=1;" parent="j6owaacCCFAsNgO6bkA7-60" vertex="1">
          <mxGeometry width="30" height="30" as="geometry">
            <mxRectangle width="30" height="30" as="alternateBounds" />
          </mxGeometry>
        </mxCell>
        <mxCell id="j6owaacCCFAsNgO6bkA7-62" value="Row 3" style="shape=partialRectangle;connectable=0;fillColor=none;top=0;left=0;bottom=0;right=0;align=left;spacingLeft=6;overflow=hidden;whiteSpace=wrap;html=1;" parent="j6owaacCCFAsNgO6bkA7-60" vertex="1">
          <mxGeometry x="30" width="150" height="30" as="geometry">
            <mxRectangle width="150" height="30" as="alternateBounds" />
          </mxGeometry>
        </mxCell>
        <mxCell id="j6owaacCCFAsNgO6bkA7-63" value="InstructorCourse" style="shape=table;startSize=30;container=1;collapsible=1;childLayout=tableLayout;fixedRows=1;rowLines=0;fontStyle=1;align=center;resizeLast=1;html=1;" parent="WIyWlLk6GJQsqaUBKTNV-1" vertex="1">
          <mxGeometry x="-527.5" y="-1074" width="255" height="120" as="geometry" />
        </mxCell>
        <mxCell id="j6owaacCCFAsNgO6bkA7-64" value="" style="shape=tableRow;horizontal=0;startSize=0;swimlaneHead=0;swimlaneBody=0;fillColor=none;collapsible=0;dropTarget=0;points=[[0,0.5],[1,0.5]];portConstraint=eastwest;top=0;left=0;right=0;bottom=1;" parent="j6owaacCCFAsNgO6bkA7-63" vertex="1">
          <mxGeometry y="30" width="255" height="30" as="geometry" />
        </mxCell>
        <mxCell id="j6owaacCCFAsNgO6bkA7-65" value="PK" style="shape=partialRectangle;connectable=0;fillColor=none;top=0;left=0;bottom=0;right=0;fontStyle=1;overflow=hidden;whiteSpace=wrap;html=1;" parent="j6owaacCCFAsNgO6bkA7-64" vertex="1">
          <mxGeometry width="30" height="30" as="geometry">
            <mxRectangle width="30" height="30" as="alternateBounds" />
          </mxGeometry>
        </mxCell>
        <mxCell id="j6owaacCCFAsNgO6bkA7-66" value="UniqueID" style="shape=partialRectangle;connectable=0;fillColor=none;top=0;left=0;bottom=0;right=0;align=left;spacingLeft=6;fontStyle=5;overflow=hidden;whiteSpace=wrap;html=1;" parent="j6owaacCCFAsNgO6bkA7-64" vertex="1">
          <mxGeometry x="30" width="225" height="30" as="geometry">
            <mxRectangle width="225" height="30" as="alternateBounds" />
          </mxGeometry>
        </mxCell>
        <mxCell id="j6owaacCCFAsNgO6bkA7-79" value="" style="shape=tableRow;horizontal=0;startSize=0;swimlaneHead=0;swimlaneBody=0;fillColor=none;collapsible=0;dropTarget=0;points=[[0,0.5],[1,0.5]];portConstraint=eastwest;top=0;left=0;right=0;bottom=0;" parent="j6owaacCCFAsNgO6bkA7-63" vertex="1">
          <mxGeometry y="60" width="255" height="30" as="geometry" />
        </mxCell>
        <mxCell id="j6owaacCCFAsNgO6bkA7-80" value="FK" style="shape=partialRectangle;connectable=0;fillColor=none;top=0;left=0;bottom=0;right=0;fontStyle=0;overflow=hidden;whiteSpace=wrap;html=1;" parent="j6owaacCCFAsNgO6bkA7-79" vertex="1">
          <mxGeometry width="30" height="30" as="geometry">
            <mxRectangle width="30" height="30" as="alternateBounds" />
          </mxGeometry>
        </mxCell>
        <mxCell id="j6owaacCCFAsNgO6bkA7-81" value="InstructorID [NOT NULL]" style="shape=partialRectangle;connectable=0;fillColor=none;top=0;left=0;bottom=0;right=0;align=left;spacingLeft=6;fontStyle=0;overflow=hidden;whiteSpace=wrap;html=1;" parent="j6owaacCCFAsNgO6bkA7-79" vertex="1">
          <mxGeometry x="30" width="225" height="30" as="geometry">
            <mxRectangle width="225" height="30" as="alternateBounds" />
          </mxGeometry>
        </mxCell>
        <mxCell id="j6owaacCCFAsNgO6bkA7-82" value="" style="shape=tableRow;horizontal=0;startSize=0;swimlaneHead=0;swimlaneBody=0;fillColor=none;collapsible=0;dropTarget=0;points=[[0,0.5],[1,0.5]];portConstraint=eastwest;top=0;left=0;right=0;bottom=0;" parent="j6owaacCCFAsNgO6bkA7-63" vertex="1">
          <mxGeometry y="90" width="255" height="30" as="geometry" />
        </mxCell>
        <mxCell id="j6owaacCCFAsNgO6bkA7-83" value="FK" style="shape=partialRectangle;connectable=0;fillColor=none;top=0;left=0;bottom=0;right=0;fontStyle=0;overflow=hidden;whiteSpace=wrap;html=1;" parent="j6owaacCCFAsNgO6bkA7-82" vertex="1">
          <mxGeometry width="30" height="30" as="geometry">
            <mxRectangle width="30" height="30" as="alternateBounds" />
          </mxGeometry>
        </mxCell>
        <mxCell id="j6owaacCCFAsNgO6bkA7-84" value="CourseID [NOT NULL]" style="shape=partialRectangle;connectable=0;fillColor=none;top=0;left=0;bottom=0;right=0;align=left;spacingLeft=6;fontStyle=0;overflow=hidden;whiteSpace=wrap;html=1;" parent="j6owaacCCFAsNgO6bkA7-82" vertex="1">
          <mxGeometry x="30" width="225" height="30" as="geometry">
            <mxRectangle width="225" height="30" as="alternateBounds" />
          </mxGeometry>
        </mxCell>
        <mxCell id="j6owaacCCFAsNgO6bkA7-77" value="" style="fontSize=12;html=1;endArrow=ERoneToMany;startArrow=ERzeroToMany;rounded=0;entryX=0;entryY=0.5;entryDx=0;entryDy=0;exitX=1;exitY=0.5;exitDx=0;exitDy=0;" parent="WIyWlLk6GJQsqaUBKTNV-1" source="j6owaacCCFAsNgO6bkA7-32" target="j6owaacCCFAsNgO6bkA7-50" edge="1">
          <mxGeometry width="100" height="100" relative="1" as="geometry">
            <mxPoint x="-695" y="-659.08" as="sourcePoint" />
            <mxPoint x="-515" y="-659.08" as="targetPoint" />
          </mxGeometry>
        </mxCell>
        <mxCell id="j6owaacCCFAsNgO6bkA7-78" value="Teaches" style="edgeLabel;html=1;align=center;verticalAlign=middle;resizable=0;points=[];" parent="j6owaacCCFAsNgO6bkA7-77" vertex="1" connectable="0">
          <mxGeometry x="0.0563" relative="1" as="geometry">
            <mxPoint as="offset" />
          </mxGeometry>
        </mxCell>
        <mxCell id="j6owaacCCFAsNgO6bkA7-85" value="Exam" style="shape=table;startSize=30;container=1;collapsible=1;childLayout=tableLayout;fixedRows=1;rowLines=0;fontStyle=1;align=center;resizeLast=1;html=1;" parent="WIyWlLk6GJQsqaUBKTNV-1" vertex="1" collapsed="1">
          <mxGeometry x="-435" y="-844" width="90" height="30" as="geometry">
            <mxRectangle x="-435" y="-844" width="190" height="180" as="alternateBounds" />
          </mxGeometry>
        </mxCell>
        <mxCell id="j6owaacCCFAsNgO6bkA7-86" value="" style="shape=tableRow;horizontal=0;startSize=0;swimlaneHead=0;swimlaneBody=0;fillColor=none;collapsible=0;dropTarget=0;points=[[0,0.5],[1,0.5]];portConstraint=eastwest;top=0;left=0;right=0;bottom=1;" parent="j6owaacCCFAsNgO6bkA7-85" vertex="1">
          <mxGeometry y="30" width="190" height="30" as="geometry" />
        </mxCell>
        <mxCell id="j6owaacCCFAsNgO6bkA7-87" value="PK" style="shape=partialRectangle;connectable=0;fillColor=none;top=0;left=0;bottom=0;right=0;fontStyle=1;overflow=hidden;whiteSpace=wrap;html=1;" parent="j6owaacCCFAsNgO6bkA7-86" vertex="1">
          <mxGeometry width="30" height="30" as="geometry">
            <mxRectangle width="30" height="30" as="alternateBounds" />
          </mxGeometry>
        </mxCell>
        <mxCell id="j6owaacCCFAsNgO6bkA7-88" value="UniqueID" style="shape=partialRectangle;connectable=0;fillColor=none;top=0;left=0;bottom=0;right=0;align=left;spacingLeft=6;fontStyle=5;overflow=hidden;whiteSpace=wrap;html=1;" parent="j6owaacCCFAsNgO6bkA7-86" vertex="1">
          <mxGeometry x="30" width="160" height="30" as="geometry">
            <mxRectangle width="160" height="30" as="alternateBounds" />
          </mxGeometry>
        </mxCell>
        <mxCell id="j6owaacCCFAsNgO6bkA7-101" value="" style="shape=tableRow;horizontal=0;startSize=0;swimlaneHead=0;swimlaneBody=0;fillColor=none;collapsible=0;dropTarget=0;points=[[0,0.5],[1,0.5]];portConstraint=eastwest;top=0;left=0;right=0;bottom=0;" parent="j6owaacCCFAsNgO6bkA7-85" vertex="1">
          <mxGeometry y="60" width="190" height="30" as="geometry" />
        </mxCell>
        <mxCell id="j6owaacCCFAsNgO6bkA7-102" value="FK" style="shape=partialRectangle;connectable=0;fillColor=none;top=0;left=0;bottom=0;right=0;fontStyle=0;overflow=hidden;whiteSpace=wrap;html=1;" parent="j6owaacCCFAsNgO6bkA7-101" vertex="1">
          <mxGeometry width="30" height="30" as="geometry">
            <mxRectangle width="30" height="30" as="alternateBounds" />
          </mxGeometry>
        </mxCell>
        <mxCell id="j6owaacCCFAsNgO6bkA7-103" value="CourseID [NOT NULL]" style="shape=partialRectangle;connectable=0;fillColor=none;top=0;left=0;bottom=0;right=0;align=left;spacingLeft=6;fontStyle=0;overflow=hidden;whiteSpace=wrap;html=1;" parent="j6owaacCCFAsNgO6bkA7-101" vertex="1">
          <mxGeometry x="30" width="160" height="30" as="geometry">
            <mxRectangle width="160" height="30" as="alternateBounds" />
          </mxGeometry>
        </mxCell>
        <mxCell id="j6owaacCCFAsNgO6bkA7-197" value="" style="shape=tableRow;horizontal=0;startSize=0;swimlaneHead=0;swimlaneBody=0;fillColor=none;collapsible=0;dropTarget=0;points=[[0,0.5],[1,0.5]];portConstraint=eastwest;top=0;left=0;right=0;bottom=0;" parent="j6owaacCCFAsNgO6bkA7-85" vertex="1">
          <mxGeometry y="90" width="190" height="30" as="geometry" />
        </mxCell>
        <mxCell id="j6owaacCCFAsNgO6bkA7-198" value="FK" style="shape=partialRectangle;connectable=0;fillColor=none;top=0;left=0;bottom=0;right=0;fontStyle=0;overflow=hidden;whiteSpace=wrap;html=1;" parent="j6owaacCCFAsNgO6bkA7-197" vertex="1">
          <mxGeometry width="30" height="30" as="geometry">
            <mxRectangle width="30" height="30" as="alternateBounds" />
          </mxGeometry>
        </mxCell>
        <mxCell id="j6owaacCCFAsNgO6bkA7-199" value="InstructorID [NOT NULL]" style="shape=partialRectangle;connectable=0;fillColor=none;top=0;left=0;bottom=0;right=0;align=left;spacingLeft=6;fontStyle=0;overflow=hidden;whiteSpace=wrap;html=1;" parent="j6owaacCCFAsNgO6bkA7-197" vertex="1">
          <mxGeometry x="30" width="160" height="30" as="geometry">
            <mxRectangle width="160" height="30" as="alternateBounds" />
          </mxGeometry>
        </mxCell>
        <mxCell id="j6owaacCCFAsNgO6bkA7-92" value="" style="shape=tableRow;horizontal=0;startSize=0;swimlaneHead=0;swimlaneBody=0;fillColor=none;collapsible=0;dropTarget=0;points=[[0,0.5],[1,0.5]];portConstraint=eastwest;top=0;left=0;right=0;bottom=0;" parent="j6owaacCCFAsNgO6bkA7-85" vertex="1">
          <mxGeometry y="120" width="190" height="30" as="geometry" />
        </mxCell>
        <mxCell id="j6owaacCCFAsNgO6bkA7-93" value="" style="shape=partialRectangle;connectable=0;fillColor=none;top=0;left=0;bottom=0;right=0;editable=1;overflow=hidden;whiteSpace=wrap;html=1;" parent="j6owaacCCFAsNgO6bkA7-92" vertex="1">
          <mxGeometry width="30" height="30" as="geometry">
            <mxRectangle width="30" height="30" as="alternateBounds" />
          </mxGeometry>
        </mxCell>
        <mxCell id="j6owaacCCFAsNgO6bkA7-94" value="ExamType [Quiz | Final]" style="shape=partialRectangle;connectable=0;fillColor=none;top=0;left=0;bottom=0;right=0;align=left;spacingLeft=6;overflow=hidden;whiteSpace=wrap;html=1;" parent="j6owaacCCFAsNgO6bkA7-92" vertex="1">
          <mxGeometry x="30" width="160" height="30" as="geometry">
            <mxRectangle width="160" height="30" as="alternateBounds" />
          </mxGeometry>
        </mxCell>
        <mxCell id="j6owaacCCFAsNgO6bkA7-95" value="" style="shape=tableRow;horizontal=0;startSize=0;swimlaneHead=0;swimlaneBody=0;fillColor=none;collapsible=0;dropTarget=0;points=[[0,0.5],[1,0.5]];portConstraint=eastwest;top=0;left=0;right=0;bottom=0;" parent="j6owaacCCFAsNgO6bkA7-85" vertex="1">
          <mxGeometry y="150" width="190" height="30" as="geometry" />
        </mxCell>
        <mxCell id="j6owaacCCFAsNgO6bkA7-96" value="" style="shape=partialRectangle;connectable=0;fillColor=none;top=0;left=0;bottom=0;right=0;editable=1;overflow=hidden;whiteSpace=wrap;html=1;" parent="j6owaacCCFAsNgO6bkA7-95" vertex="1">
          <mxGeometry width="30" height="30" as="geometry">
            <mxRectangle width="30" height="30" as="alternateBounds" />
          </mxGeometry>
        </mxCell>
        <mxCell id="j6owaacCCFAsNgO6bkA7-97" value="TotalMarks" style="shape=partialRectangle;connectable=0;fillColor=none;top=0;left=0;bottom=0;right=0;align=left;spacingLeft=6;overflow=hidden;whiteSpace=wrap;html=1;" parent="j6owaacCCFAsNgO6bkA7-95" vertex="1">
          <mxGeometry x="30" width="160" height="30" as="geometry">
            <mxRectangle width="160" height="30" as="alternateBounds" />
          </mxGeometry>
        </mxCell>
        <mxCell id="j6owaacCCFAsNgO6bkA7-99" value="" style="fontSize=12;html=1;endArrow=ERoneToMany;startArrow=ERzeroToOne;rounded=0;entryX=0;entryY=1;entryDx=0;entryDy=0;exitX=1;exitY=0;exitDx=0;exitDy=0;" parent="WIyWlLk6GJQsqaUBKTNV-1" source="j6owaacCCFAsNgO6bkA7-50" target="j6owaacCCFAsNgO6bkA7-85" edge="1">
          <mxGeometry width="100" height="100" relative="1" as="geometry">
            <mxPoint x="-635" y="-484" as="sourcePoint" />
            <mxPoint x="-535" y="-584" as="targetPoint" />
          </mxGeometry>
        </mxCell>
        <mxCell id="j6owaacCCFAsNgO6bkA7-100" value="Have" style="edgeLabel;html=1;align=center;verticalAlign=middle;resizable=0;points=[];" parent="j6owaacCCFAsNgO6bkA7-99" vertex="1" connectable="0">
          <mxGeometry x="0.0462" y="2" relative="1" as="geometry">
            <mxPoint as="offset" />
          </mxGeometry>
        </mxCell>
        <mxCell id="j6owaacCCFAsNgO6bkA7-104" value="Question" style="shape=table;startSize=30;container=1;collapsible=1;childLayout=tableLayout;fixedRows=1;rowLines=0;fontStyle=1;align=center;resizeLast=1;html=1;" parent="WIyWlLk6GJQsqaUBKTNV-1" vertex="1" collapsed="1">
          <mxGeometry x="-95" y="-844" width="80" height="30" as="geometry">
            <mxRectangle x="-95" y="-844" width="180" height="120" as="alternateBounds" />
          </mxGeometry>
        </mxCell>
        <mxCell id="j6owaacCCFAsNgO6bkA7-105" value="" style="shape=tableRow;horizontal=0;startSize=0;swimlaneHead=0;swimlaneBody=0;fillColor=none;collapsible=0;dropTarget=0;points=[[0,0.5],[1,0.5]];portConstraint=eastwest;top=0;left=0;right=0;bottom=1;" parent="j6owaacCCFAsNgO6bkA7-104" vertex="1">
          <mxGeometry y="30" width="180" height="30" as="geometry" />
        </mxCell>
        <mxCell id="j6owaacCCFAsNgO6bkA7-106" value="PK" style="shape=partialRectangle;connectable=0;fillColor=none;top=0;left=0;bottom=0;right=0;fontStyle=1;overflow=hidden;whiteSpace=wrap;html=1;" parent="j6owaacCCFAsNgO6bkA7-105" vertex="1">
          <mxGeometry width="30" height="30" as="geometry">
            <mxRectangle width="30" height="30" as="alternateBounds" />
          </mxGeometry>
        </mxCell>
        <mxCell id="j6owaacCCFAsNgO6bkA7-107" value="UniqueID" style="shape=partialRectangle;connectable=0;fillColor=none;top=0;left=0;bottom=0;right=0;align=left;spacingLeft=6;fontStyle=5;overflow=hidden;whiteSpace=wrap;html=1;" parent="j6owaacCCFAsNgO6bkA7-105" vertex="1">
          <mxGeometry x="30" width="150" height="30" as="geometry">
            <mxRectangle width="150" height="30" as="alternateBounds" />
          </mxGeometry>
        </mxCell>
        <mxCell id="j6owaacCCFAsNgO6bkA7-273" value="" style="shape=tableRow;horizontal=0;startSize=0;swimlaneHead=0;swimlaneBody=0;fillColor=none;collapsible=0;dropTarget=0;points=[[0,0.5],[1,0.5]];portConstraint=eastwest;top=0;left=0;right=0;bottom=0;" parent="j6owaacCCFAsNgO6bkA7-104" vertex="1">
          <mxGeometry y="60" width="180" height="30" as="geometry" />
        </mxCell>
        <mxCell id="j6owaacCCFAsNgO6bkA7-274" value="" style="shape=partialRectangle;connectable=0;fillColor=none;top=0;left=0;bottom=0;right=0;editable=1;overflow=hidden;" parent="j6owaacCCFAsNgO6bkA7-273" vertex="1">
          <mxGeometry width="30" height="30" as="geometry">
            <mxRectangle width="30" height="30" as="alternateBounds" />
          </mxGeometry>
        </mxCell>
        <mxCell id="j6owaacCCFAsNgO6bkA7-275" value="Text" style="shape=partialRectangle;connectable=0;fillColor=none;top=0;left=0;bottom=0;right=0;align=left;spacingLeft=6;overflow=hidden;" parent="j6owaacCCFAsNgO6bkA7-273" vertex="1">
          <mxGeometry x="30" width="150" height="30" as="geometry">
            <mxRectangle width="150" height="30" as="alternateBounds" />
          </mxGeometry>
        </mxCell>
        <mxCell id="j6owaacCCFAsNgO6bkA7-282" value="" style="shape=tableRow;horizontal=0;startSize=0;swimlaneHead=0;swimlaneBody=0;fillColor=none;collapsible=0;dropTarget=0;points=[[0,0.5],[1,0.5]];portConstraint=eastwest;top=0;left=0;right=0;bottom=0;" parent="j6owaacCCFAsNgO6bkA7-104" vertex="1">
          <mxGeometry y="90" width="180" height="30" as="geometry" />
        </mxCell>
        <mxCell id="j6owaacCCFAsNgO6bkA7-283" value="FK" style="shape=partialRectangle;connectable=0;fillColor=none;top=0;left=0;bottom=0;right=0;fontStyle=0;overflow=hidden;whiteSpace=wrap;html=1;" parent="j6owaacCCFAsNgO6bkA7-282" vertex="1">
          <mxGeometry width="30" height="30" as="geometry">
            <mxRectangle width="30" height="30" as="alternateBounds" />
          </mxGeometry>
        </mxCell>
        <mxCell id="j6owaacCCFAsNgO6bkA7-284" value="CorrectChoice [NULL]" style="shape=partialRectangle;connectable=0;fillColor=none;top=0;left=0;bottom=0;right=0;align=left;spacingLeft=6;fontStyle=0;overflow=hidden;whiteSpace=wrap;html=1;" parent="j6owaacCCFAsNgO6bkA7-282" vertex="1">
          <mxGeometry x="30" width="150" height="30" as="geometry">
            <mxRectangle width="150" height="30" as="alternateBounds" />
          </mxGeometry>
        </mxCell>
        <mxCell id="j6owaacCCFAsNgO6bkA7-119" value="" style="fontSize=12;html=1;endArrow=ERoneToMany;startArrow=ERzeroToMany;rounded=0;flowAnimation=0;shadow=0;edgeStyle=entityRelationEdgeStyle;strokeColor=default;entryX=1;entryY=0.5;entryDx=0;entryDy=0;exitX=0;exitY=0.5;exitDx=0;exitDy=0;" parent="WIyWlLk6GJQsqaUBKTNV-1" source="j6owaacCCFAsNgO6bkA7-104" target="j6owaacCCFAsNgO6bkA7-85" edge="1">
          <mxGeometry width="100" height="100" relative="1" as="geometry">
            <mxPoint x="-105" y="-624" as="sourcePoint" />
            <mxPoint x="-25" y="-394" as="targetPoint" />
            <Array as="points">
              <mxPoint x="-145" y="-844" />
              <mxPoint x="-155" y="-844" />
            </Array>
          </mxGeometry>
        </mxCell>
        <mxCell id="j6owaacCCFAsNgO6bkA7-120" value="Have" style="edgeLabel;html=1;align=center;verticalAlign=middle;resizable=0;points=[];" parent="j6owaacCCFAsNgO6bkA7-119" vertex="1" connectable="0">
          <mxGeometry x="0.0831" y="-2" relative="1" as="geometry">
            <mxPoint as="offset" />
          </mxGeometry>
        </mxCell>
        <mxCell id="j6owaacCCFAsNgO6bkA7-121" value="ExamQuestion" style="shape=table;startSize=30;container=1;collapsible=1;childLayout=tableLayout;fixedRows=1;rowLines=0;fontStyle=1;align=center;resizeLast=1;html=1;" parent="WIyWlLk6GJQsqaUBKTNV-1" vertex="1">
          <mxGeometry x="-242.5" y="-1134" width="210" height="180" as="geometry" />
        </mxCell>
        <mxCell id="j6owaacCCFAsNgO6bkA7-122" value="" style="shape=tableRow;horizontal=0;startSize=0;swimlaneHead=0;swimlaneBody=0;fillColor=none;collapsible=0;dropTarget=0;points=[[0,0.5],[1,0.5]];portConstraint=eastwest;top=0;left=0;right=0;bottom=1;" parent="j6owaacCCFAsNgO6bkA7-121" vertex="1">
          <mxGeometry y="30" width="210" height="30" as="geometry" />
        </mxCell>
        <mxCell id="j6owaacCCFAsNgO6bkA7-123" value="PK" style="shape=partialRectangle;connectable=0;fillColor=none;top=0;left=0;bottom=0;right=0;fontStyle=1;overflow=hidden;whiteSpace=wrap;html=1;" parent="j6owaacCCFAsNgO6bkA7-122" vertex="1">
          <mxGeometry width="30" height="30" as="geometry">
            <mxRectangle width="30" height="30" as="alternateBounds" />
          </mxGeometry>
        </mxCell>
        <mxCell id="j6owaacCCFAsNgO6bkA7-124" value="UniqueID" style="shape=partialRectangle;connectable=0;fillColor=none;top=0;left=0;bottom=0;right=0;align=left;spacingLeft=6;fontStyle=5;overflow=hidden;whiteSpace=wrap;html=1;" parent="j6owaacCCFAsNgO6bkA7-122" vertex="1">
          <mxGeometry x="30" width="180" height="30" as="geometry">
            <mxRectangle width="180" height="30" as="alternateBounds" />
          </mxGeometry>
        </mxCell>
        <mxCell id="j6owaacCCFAsNgO6bkA7-125" value="" style="shape=tableRow;horizontal=0;startSize=0;swimlaneHead=0;swimlaneBody=0;fillColor=none;collapsible=0;dropTarget=0;points=[[0,0.5],[1,0.5]];portConstraint=eastwest;top=0;left=0;right=0;bottom=0;" parent="j6owaacCCFAsNgO6bkA7-121" vertex="1">
          <mxGeometry y="60" width="210" height="30" as="geometry" />
        </mxCell>
        <mxCell id="j6owaacCCFAsNgO6bkA7-126" value="FK" style="shape=partialRectangle;connectable=0;fillColor=none;top=0;left=0;bottom=0;right=0;fontStyle=0;overflow=hidden;whiteSpace=wrap;html=1;" parent="j6owaacCCFAsNgO6bkA7-125" vertex="1">
          <mxGeometry width="30" height="30" as="geometry">
            <mxRectangle width="30" height="30" as="alternateBounds" />
          </mxGeometry>
        </mxCell>
        <mxCell id="j6owaacCCFAsNgO6bkA7-127" value="ExamID [NOT NULL]" style="shape=partialRectangle;connectable=0;fillColor=none;top=0;left=0;bottom=0;right=0;align=left;spacingLeft=6;fontStyle=0;overflow=hidden;whiteSpace=wrap;html=1;" parent="j6owaacCCFAsNgO6bkA7-125" vertex="1">
          <mxGeometry x="30" width="180" height="30" as="geometry">
            <mxRectangle width="180" height="30" as="alternateBounds" />
          </mxGeometry>
        </mxCell>
        <mxCell id="j6owaacCCFAsNgO6bkA7-128" value="" style="shape=tableRow;horizontal=0;startSize=0;swimlaneHead=0;swimlaneBody=0;fillColor=none;collapsible=0;dropTarget=0;points=[[0,0.5],[1,0.5]];portConstraint=eastwest;top=0;left=0;right=0;bottom=0;" parent="j6owaacCCFAsNgO6bkA7-121" vertex="1">
          <mxGeometry y="90" width="210" height="30" as="geometry" />
        </mxCell>
        <mxCell id="j6owaacCCFAsNgO6bkA7-129" value="FK" style="shape=partialRectangle;connectable=0;fillColor=none;top=0;left=0;bottom=0;right=0;fontStyle=0;overflow=hidden;whiteSpace=wrap;html=1;" parent="j6owaacCCFAsNgO6bkA7-128" vertex="1">
          <mxGeometry width="30" height="30" as="geometry">
            <mxRectangle width="30" height="30" as="alternateBounds" />
          </mxGeometry>
        </mxCell>
        <mxCell id="j6owaacCCFAsNgO6bkA7-130" value="QuestionID [NOT NULL]" style="shape=partialRectangle;connectable=0;fillColor=none;top=0;left=0;bottom=0;right=0;align=left;spacingLeft=6;fontStyle=0;overflow=hidden;whiteSpace=wrap;html=1;" parent="j6owaacCCFAsNgO6bkA7-128" vertex="1">
          <mxGeometry x="30" width="180" height="30" as="geometry">
            <mxRectangle width="180" height="30" as="alternateBounds" />
          </mxGeometry>
        </mxCell>
        <mxCell id="j6owaacCCFAsNgO6bkA7-258" value="" style="shape=tableRow;horizontal=0;startSize=0;swimlaneHead=0;swimlaneBody=0;fillColor=none;collapsible=0;dropTarget=0;points=[[0,0.5],[1,0.5]];portConstraint=eastwest;top=0;left=0;right=0;bottom=0;" parent="j6owaacCCFAsNgO6bkA7-121" vertex="1">
          <mxGeometry y="120" width="210" height="30" as="geometry" />
        </mxCell>
        <mxCell id="j6owaacCCFAsNgO6bkA7-259" value="" style="shape=partialRectangle;connectable=0;fillColor=none;top=0;left=0;bottom=0;right=0;editable=1;overflow=hidden;" parent="j6owaacCCFAsNgO6bkA7-258" vertex="1">
          <mxGeometry width="30" height="30" as="geometry">
            <mxRectangle width="30" height="30" as="alternateBounds" />
          </mxGeometry>
        </mxCell>
        <mxCell id="j6owaacCCFAsNgO6bkA7-260" value="QuestionOrder [NOT NULL]" style="shape=partialRectangle;connectable=0;fillColor=none;top=0;left=0;bottom=0;right=0;align=left;spacingLeft=6;overflow=hidden;" parent="j6owaacCCFAsNgO6bkA7-258" vertex="1">
          <mxGeometry x="30" width="180" height="30" as="geometry">
            <mxRectangle width="180" height="30" as="alternateBounds" />
          </mxGeometry>
        </mxCell>
        <mxCell id="j6owaacCCFAsNgO6bkA7-243" value="" style="shape=tableRow;horizontal=0;startSize=0;swimlaneHead=0;swimlaneBody=0;fillColor=none;collapsible=0;dropTarget=0;points=[[0,0.5],[1,0.5]];portConstraint=eastwest;top=0;left=0;right=0;bottom=0;" parent="j6owaacCCFAsNgO6bkA7-121" vertex="1">
          <mxGeometry y="150" width="210" height="30" as="geometry" />
        </mxCell>
        <mxCell id="j6owaacCCFAsNgO6bkA7-244" value="" style="shape=partialRectangle;connectable=0;fillColor=none;top=0;left=0;bottom=0;right=0;editable=1;overflow=hidden;" parent="j6owaacCCFAsNgO6bkA7-243" vertex="1">
          <mxGeometry width="30" height="30" as="geometry">
            <mxRectangle width="30" height="30" as="alternateBounds" />
          </mxGeometry>
        </mxCell>
        <mxCell id="j6owaacCCFAsNgO6bkA7-245" value="QuestionScore [NOT NULL]" style="shape=partialRectangle;connectable=0;fillColor=none;top=0;left=0;bottom=0;right=0;align=left;spacingLeft=6;overflow=hidden;" parent="j6owaacCCFAsNgO6bkA7-243" vertex="1">
          <mxGeometry x="30" width="180" height="30" as="geometry">
            <mxRectangle width="180" height="30" as="alternateBounds" />
          </mxGeometry>
        </mxCell>
        <mxCell id="j6owaacCCFAsNgO6bkA7-134" value="Choice" style="shape=table;startSize=30;container=1;collapsible=1;childLayout=tableLayout;fixedRows=1;rowLines=0;fontStyle=1;align=center;resizeLast=1;html=1;" parent="WIyWlLk6GJQsqaUBKTNV-1" vertex="1" collapsed="1">
          <mxGeometry x="-95" y="-753.5" width="80" height="30" as="geometry">
            <mxRectangle x="-95" y="-753.5" width="180" height="120" as="alternateBounds" />
          </mxGeometry>
        </mxCell>
        <mxCell id="j6owaacCCFAsNgO6bkA7-135" value="" style="shape=tableRow;horizontal=0;startSize=0;swimlaneHead=0;swimlaneBody=0;fillColor=none;collapsible=0;dropTarget=0;points=[[0,0.5],[1,0.5]];portConstraint=eastwest;top=0;left=0;right=0;bottom=1;" parent="j6owaacCCFAsNgO6bkA7-134" vertex="1">
          <mxGeometry y="30" width="180" height="30" as="geometry" />
        </mxCell>
        <mxCell id="j6owaacCCFAsNgO6bkA7-136" value="PK" style="shape=partialRectangle;connectable=0;fillColor=none;top=0;left=0;bottom=0;right=0;fontStyle=1;overflow=hidden;whiteSpace=wrap;html=1;" parent="j6owaacCCFAsNgO6bkA7-135" vertex="1">
          <mxGeometry width="30" height="30" as="geometry">
            <mxRectangle width="30" height="30" as="alternateBounds" />
          </mxGeometry>
        </mxCell>
        <mxCell id="j6owaacCCFAsNgO6bkA7-137" value="UniqueID" style="shape=partialRectangle;connectable=0;fillColor=none;top=0;left=0;bottom=0;right=0;align=left;spacingLeft=6;fontStyle=5;overflow=hidden;whiteSpace=wrap;html=1;" parent="j6owaacCCFAsNgO6bkA7-135" vertex="1">
          <mxGeometry x="30" width="150" height="30" as="geometry">
            <mxRectangle width="150" height="30" as="alternateBounds" />
          </mxGeometry>
        </mxCell>
        <mxCell id="j6owaacCCFAsNgO6bkA7-276" value="" style="shape=tableRow;horizontal=0;startSize=0;swimlaneHead=0;swimlaneBody=0;fillColor=none;collapsible=0;dropTarget=0;points=[[0,0.5],[1,0.5]];portConstraint=eastwest;top=0;left=0;right=0;bottom=0;" parent="j6owaacCCFAsNgO6bkA7-134" vertex="1">
          <mxGeometry y="60" width="180" height="30" as="geometry" />
        </mxCell>
        <mxCell id="j6owaacCCFAsNgO6bkA7-277" value="" style="shape=partialRectangle;connectable=0;fillColor=none;top=0;left=0;bottom=0;right=0;editable=1;overflow=hidden;" parent="j6owaacCCFAsNgO6bkA7-276" vertex="1">
          <mxGeometry width="30" height="30" as="geometry">
            <mxRectangle width="30" height="30" as="alternateBounds" />
          </mxGeometry>
        </mxCell>
        <mxCell id="j6owaacCCFAsNgO6bkA7-278" value="Text" style="shape=partialRectangle;connectable=0;fillColor=none;top=0;left=0;bottom=0;right=0;align=left;spacingLeft=6;overflow=hidden;" parent="j6owaacCCFAsNgO6bkA7-276" vertex="1">
          <mxGeometry x="30" width="150" height="30" as="geometry">
            <mxRectangle width="150" height="30" as="alternateBounds" />
          </mxGeometry>
        </mxCell>
        <mxCell id="j6owaacCCFAsNgO6bkA7-138" value="" style="shape=tableRow;horizontal=0;startSize=0;swimlaneHead=0;swimlaneBody=0;fillColor=none;collapsible=0;dropTarget=0;points=[[0,0.5],[1,0.5]];portConstraint=eastwest;top=0;left=0;right=0;bottom=0;" parent="j6owaacCCFAsNgO6bkA7-134" vertex="1">
          <mxGeometry y="90" width="180" height="30" as="geometry" />
        </mxCell>
        <mxCell id="j6owaacCCFAsNgO6bkA7-139" value="" style="shape=partialRectangle;connectable=0;fillColor=none;top=0;left=0;bottom=0;right=0;editable=1;overflow=hidden;whiteSpace=wrap;html=1;" parent="j6owaacCCFAsNgO6bkA7-138" vertex="1">
          <mxGeometry width="30" height="30" as="geometry">
            <mxRectangle width="30" height="30" as="alternateBounds" />
          </mxGeometry>
        </mxCell>
        <mxCell id="j6owaacCCFAsNgO6bkA7-140" value="QuestionID [NOT NULL]" style="shape=partialRectangle;connectable=0;fillColor=none;top=0;left=0;bottom=0;right=0;align=left;spacingLeft=6;overflow=hidden;whiteSpace=wrap;html=1;" parent="j6owaacCCFAsNgO6bkA7-138" vertex="1">
          <mxGeometry x="30" width="150" height="30" as="geometry">
            <mxRectangle width="150" height="30" as="alternateBounds" />
          </mxGeometry>
        </mxCell>
        <mxCell id="j6owaacCCFAsNgO6bkA7-141" value="" style="fontSize=12;html=1;endArrow=ERoneToMany;startArrow=ERmandOne;rounded=0;exitX=0.25;exitY=1;exitDx=0;exitDy=0;entryX=0.25;entryY=0;entryDx=0;entryDy=0;" parent="WIyWlLk6GJQsqaUBKTNV-1" source="j6owaacCCFAsNgO6bkA7-104" target="j6owaacCCFAsNgO6bkA7-134" edge="1">
          <mxGeometry width="100" height="100" relative="1" as="geometry">
            <mxPoint x="-145" y="-504" as="sourcePoint" />
            <mxPoint x="-45" y="-604" as="targetPoint" />
          </mxGeometry>
        </mxCell>
        <mxCell id="j6owaacCCFAsNgO6bkA7-142" value="Have Choices" style="edgeLabel;html=1;align=center;verticalAlign=middle;resizable=0;points=[];" parent="j6owaacCCFAsNgO6bkA7-141" vertex="1" connectable="0">
          <mxGeometry x="-0.0549" y="2" relative="1" as="geometry">
            <mxPoint x="-22" y="1" as="offset" />
          </mxGeometry>
        </mxCell>
        <mxCell id="j6owaacCCFAsNgO6bkA7-144" value="Student" style="shape=table;startSize=30;container=1;collapsible=1;childLayout=tableLayout;fixedRows=1;rowLines=0;fontStyle=1;align=center;resizeLast=1;html=1;" parent="WIyWlLk6GJQsqaUBKTNV-1" vertex="1" collapsed="1">
          <mxGeometry x="-435" y="-714" width="90" height="30" as="geometry">
            <mxRectangle x="-510" y="-650" width="180" height="150" as="alternateBounds" />
          </mxGeometry>
        </mxCell>
        <mxCell id="j6owaacCCFAsNgO6bkA7-145" value="" style="shape=tableRow;horizontal=0;startSize=0;swimlaneHead=0;swimlaneBody=0;fillColor=none;collapsible=0;dropTarget=0;points=[[0,0.5],[1,0.5]];portConstraint=eastwest;top=0;left=0;right=0;bottom=1;" parent="j6owaacCCFAsNgO6bkA7-144" vertex="1">
          <mxGeometry y="30" width="180" height="30" as="geometry" />
        </mxCell>
        <mxCell id="j6owaacCCFAsNgO6bkA7-146" value="PK" style="shape=partialRectangle;connectable=0;fillColor=none;top=0;left=0;bottom=0;right=0;fontStyle=1;overflow=hidden;whiteSpace=wrap;html=1;" parent="j6owaacCCFAsNgO6bkA7-145" vertex="1">
          <mxGeometry width="30" height="30" as="geometry">
            <mxRectangle width="30" height="30" as="alternateBounds" />
          </mxGeometry>
        </mxCell>
        <mxCell id="j6owaacCCFAsNgO6bkA7-147" value="UniqueID" style="shape=partialRectangle;connectable=0;fillColor=none;top=0;left=0;bottom=0;right=0;align=left;spacingLeft=6;fontStyle=5;overflow=hidden;whiteSpace=wrap;html=1;" parent="j6owaacCCFAsNgO6bkA7-145" vertex="1">
          <mxGeometry x="30" width="150" height="30" as="geometry">
            <mxRectangle width="150" height="30" as="alternateBounds" />
          </mxGeometry>
        </mxCell>
        <mxCell id="j6owaacCCFAsNgO6bkA7-148" value="" style="shape=tableRow;horizontal=0;startSize=0;swimlaneHead=0;swimlaneBody=0;fillColor=none;collapsible=0;dropTarget=0;points=[[0,0.5],[1,0.5]];portConstraint=eastwest;top=0;left=0;right=0;bottom=0;" parent="j6owaacCCFAsNgO6bkA7-144" vertex="1">
          <mxGeometry y="60" width="180" height="30" as="geometry" />
        </mxCell>
        <mxCell id="j6owaacCCFAsNgO6bkA7-149" value="" style="shape=partialRectangle;connectable=0;fillColor=none;top=0;left=0;bottom=0;right=0;editable=1;overflow=hidden;whiteSpace=wrap;html=1;" parent="j6owaacCCFAsNgO6bkA7-148" vertex="1">
          <mxGeometry width="30" height="30" as="geometry">
            <mxRectangle width="30" height="30" as="alternateBounds" />
          </mxGeometry>
        </mxCell>
        <mxCell id="j6owaacCCFAsNgO6bkA7-150" value="Name" style="shape=partialRectangle;connectable=0;fillColor=none;top=0;left=0;bottom=0;right=0;align=left;spacingLeft=6;overflow=hidden;whiteSpace=wrap;html=1;" parent="j6owaacCCFAsNgO6bkA7-148" vertex="1">
          <mxGeometry x="30" width="150" height="30" as="geometry">
            <mxRectangle width="150" height="30" as="alternateBounds" />
          </mxGeometry>
        </mxCell>
        <mxCell id="j6owaacCCFAsNgO6bkA7-267" value="" style="shape=tableRow;horizontal=0;startSize=0;swimlaneHead=0;swimlaneBody=0;fillColor=none;collapsible=0;dropTarget=0;points=[[0,0.5],[1,0.5]];portConstraint=eastwest;top=0;left=0;right=0;bottom=0;" parent="j6owaacCCFAsNgO6bkA7-144" vertex="1">
          <mxGeometry y="90" width="180" height="30" as="geometry" />
        </mxCell>
        <mxCell id="j6owaacCCFAsNgO6bkA7-268" value="" style="shape=partialRectangle;connectable=0;fillColor=none;top=0;left=0;bottom=0;right=0;editable=1;overflow=hidden;" parent="j6owaacCCFAsNgO6bkA7-267" vertex="1">
          <mxGeometry width="30" height="30" as="geometry">
            <mxRectangle width="30" height="30" as="alternateBounds" />
          </mxGeometry>
        </mxCell>
        <mxCell id="j6owaacCCFAsNgO6bkA7-269" value="Email" style="shape=partialRectangle;connectable=0;fillColor=none;top=0;left=0;bottom=0;right=0;align=left;spacingLeft=6;overflow=hidden;" parent="j6owaacCCFAsNgO6bkA7-267" vertex="1">
          <mxGeometry x="30" width="150" height="30" as="geometry">
            <mxRectangle width="150" height="30" as="alternateBounds" />
          </mxGeometry>
        </mxCell>
        <mxCell id="j6owaacCCFAsNgO6bkA7-270" value="" style="shape=tableRow;horizontal=0;startSize=0;swimlaneHead=0;swimlaneBody=0;fillColor=none;collapsible=0;dropTarget=0;points=[[0,0.5],[1,0.5]];portConstraint=eastwest;top=0;left=0;right=0;bottom=0;" parent="j6owaacCCFAsNgO6bkA7-144" vertex="1">
          <mxGeometry y="120" width="180" height="30" as="geometry" />
        </mxCell>
        <mxCell id="j6owaacCCFAsNgO6bkA7-271" value="" style="shape=partialRectangle;connectable=0;fillColor=none;top=0;left=0;bottom=0;right=0;editable=1;overflow=hidden;" parent="j6owaacCCFAsNgO6bkA7-270" vertex="1">
          <mxGeometry width="30" height="30" as="geometry">
            <mxRectangle width="30" height="30" as="alternateBounds" />
          </mxGeometry>
        </mxCell>
        <mxCell id="j6owaacCCFAsNgO6bkA7-272" value="Password" style="shape=partialRectangle;connectable=0;fillColor=none;top=0;left=0;bottom=0;right=0;align=left;spacingLeft=6;overflow=hidden;" parent="j6owaacCCFAsNgO6bkA7-270" vertex="1">
          <mxGeometry x="30" width="150" height="30" as="geometry">
            <mxRectangle width="150" height="30" as="alternateBounds" />
          </mxGeometry>
        </mxCell>
        <mxCell id="j6owaacCCFAsNgO6bkA7-185" value="" style="edgeStyle=entityRelationEdgeStyle;fontSize=12;html=1;endArrow=ERoneToMany;startArrow=ERzeroToMany;rounded=0;entryX=0;entryY=0.5;entryDx=0;entryDy=0;exitX=1;exitY=0.5;exitDx=0;exitDy=0;" parent="WIyWlLk6GJQsqaUBKTNV-1" source="j6owaacCCFAsNgO6bkA7-50" target="j6owaacCCFAsNgO6bkA7-144" edge="1">
          <mxGeometry width="100" height="100" relative="1" as="geometry">
            <mxPoint x="-475" y="-614" as="sourcePoint" />
            <mxPoint x="-540" y="-543.67" as="targetPoint" />
          </mxGeometry>
        </mxCell>
        <mxCell id="j6owaacCCFAsNgO6bkA7-186" value="Studies" style="edgeLabel;html=1;align=center;verticalAlign=middle;resizable=0;points=[];" parent="j6owaacCCFAsNgO6bkA7-185" vertex="1" connectable="0">
          <mxGeometry x="0.0563" relative="1" as="geometry">
            <mxPoint as="offset" />
          </mxGeometry>
        </mxCell>
        <mxCell id="j6owaacCCFAsNgO6bkA7-187" value="StudentCourse" style="shape=table;startSize=30;container=1;collapsible=1;childLayout=tableLayout;fixedRows=1;rowLines=0;fontStyle=1;align=center;resizeLast=1;html=1;" parent="WIyWlLk6GJQsqaUBKTNV-1" vertex="1">
          <mxGeometry x="-770" y="-504" width="200" height="180" as="geometry" />
        </mxCell>
        <mxCell id="j6owaacCCFAsNgO6bkA7-188" value="" style="shape=tableRow;horizontal=0;startSize=0;swimlaneHead=0;swimlaneBody=0;fillColor=none;collapsible=0;dropTarget=0;points=[[0,0.5],[1,0.5]];portConstraint=eastwest;top=0;left=0;right=0;bottom=1;" parent="j6owaacCCFAsNgO6bkA7-187" vertex="1">
          <mxGeometry y="30" width="200" height="30" as="geometry" />
        </mxCell>
        <mxCell id="j6owaacCCFAsNgO6bkA7-189" value="PK" style="shape=partialRectangle;connectable=0;fillColor=none;top=0;left=0;bottom=0;right=0;fontStyle=1;overflow=hidden;whiteSpace=wrap;html=1;" parent="j6owaacCCFAsNgO6bkA7-188" vertex="1">
          <mxGeometry width="30" height="30" as="geometry">
            <mxRectangle width="30" height="30" as="alternateBounds" />
          </mxGeometry>
        </mxCell>
        <mxCell id="j6owaacCCFAsNgO6bkA7-190" value="UniqueID" style="shape=partialRectangle;connectable=0;fillColor=none;top=0;left=0;bottom=0;right=0;align=left;spacingLeft=6;fontStyle=5;overflow=hidden;whiteSpace=wrap;html=1;" parent="j6owaacCCFAsNgO6bkA7-188" vertex="1">
          <mxGeometry x="30" width="170" height="30" as="geometry">
            <mxRectangle width="170" height="30" as="alternateBounds" />
          </mxGeometry>
        </mxCell>
        <mxCell id="j6owaacCCFAsNgO6bkA7-191" value="" style="shape=tableRow;horizontal=0;startSize=0;swimlaneHead=0;swimlaneBody=0;fillColor=none;collapsible=0;dropTarget=0;points=[[0,0.5],[1,0.5]];portConstraint=eastwest;top=0;left=0;right=0;bottom=0;" parent="j6owaacCCFAsNgO6bkA7-187" vertex="1">
          <mxGeometry y="60" width="200" height="30" as="geometry" />
        </mxCell>
        <mxCell id="j6owaacCCFAsNgO6bkA7-192" value="FK" style="shape=partialRectangle;connectable=0;fillColor=none;top=0;left=0;bottom=0;right=0;fontStyle=0;overflow=hidden;whiteSpace=wrap;html=1;" parent="j6owaacCCFAsNgO6bkA7-191" vertex="1">
          <mxGeometry width="30" height="30" as="geometry">
            <mxRectangle width="30" height="30" as="alternateBounds" />
          </mxGeometry>
        </mxCell>
        <mxCell id="j6owaacCCFAsNgO6bkA7-193" value="StudentID [NOT NULL]" style="shape=partialRectangle;connectable=0;fillColor=none;top=0;left=0;bottom=0;right=0;align=left;spacingLeft=6;fontStyle=0;overflow=hidden;whiteSpace=wrap;html=1;" parent="j6owaacCCFAsNgO6bkA7-191" vertex="1">
          <mxGeometry x="30" width="170" height="30" as="geometry">
            <mxRectangle width="170" height="30" as="alternateBounds" />
          </mxGeometry>
        </mxCell>
        <mxCell id="j6owaacCCFAsNgO6bkA7-194" value="" style="shape=tableRow;horizontal=0;startSize=0;swimlaneHead=0;swimlaneBody=0;fillColor=none;collapsible=0;dropTarget=0;points=[[0,0.5],[1,0.5]];portConstraint=eastwest;top=0;left=0;right=0;bottom=0;" parent="j6owaacCCFAsNgO6bkA7-187" vertex="1">
          <mxGeometry y="90" width="200" height="30" as="geometry" />
        </mxCell>
        <mxCell id="j6owaacCCFAsNgO6bkA7-195" value="FK" style="shape=partialRectangle;connectable=0;fillColor=none;top=0;left=0;bottom=0;right=0;fontStyle=0;overflow=hidden;whiteSpace=wrap;html=1;" parent="j6owaacCCFAsNgO6bkA7-194" vertex="1">
          <mxGeometry width="30" height="30" as="geometry">
            <mxRectangle width="30" height="30" as="alternateBounds" />
          </mxGeometry>
        </mxCell>
        <mxCell id="j6owaacCCFAsNgO6bkA7-196" value="CourseID [NOT NULL]" style="shape=partialRectangle;connectable=0;fillColor=none;top=0;left=0;bottom=0;right=0;align=left;spacingLeft=6;fontStyle=0;overflow=hidden;whiteSpace=wrap;html=1;" parent="j6owaacCCFAsNgO6bkA7-194" vertex="1">
          <mxGeometry x="30" width="170" height="30" as="geometry">
            <mxRectangle width="170" height="30" as="alternateBounds" />
          </mxGeometry>
        </mxCell>
        <mxCell id="j6owaacCCFAsNgO6bkA7-279" value="" style="shape=tableRow;horizontal=0;startSize=0;swimlaneHead=0;swimlaneBody=0;fillColor=none;collapsible=0;dropTarget=0;points=[[0,0.5],[1,0.5]];portConstraint=eastwest;top=0;left=0;right=0;bottom=0;" parent="j6owaacCCFAsNgO6bkA7-187" vertex="1">
          <mxGeometry y="120" width="200" height="30" as="geometry" />
        </mxCell>
        <mxCell id="j6owaacCCFAsNgO6bkA7-280" value="" style="shape=partialRectangle;connectable=0;fillColor=none;top=0;left=0;bottom=0;right=0;editable=1;overflow=hidden;" parent="j6owaacCCFAsNgO6bkA7-279" vertex="1">
          <mxGeometry width="30" height="30" as="geometry">
            <mxRectangle width="30" height="30" as="alternateBounds" />
          </mxGeometry>
        </mxCell>
        <mxCell id="j6owaacCCFAsNgO6bkA7-281" value="EnrollmentDate [NOT NULL]" style="shape=partialRectangle;connectable=0;fillColor=none;top=0;left=0;bottom=0;right=0;align=left;spacingLeft=6;overflow=hidden;" parent="j6owaacCCFAsNgO6bkA7-279" vertex="1">
          <mxGeometry x="30" width="170" height="30" as="geometry">
            <mxRectangle width="170" height="30" as="alternateBounds" />
          </mxGeometry>
        </mxCell>
        <mxCell id="j6owaacCCFAsNgO6bkA7-289" value="" style="shape=tableRow;horizontal=0;startSize=0;swimlaneHead=0;swimlaneBody=0;fillColor=none;collapsible=0;dropTarget=0;points=[[0,0.5],[1,0.5]];portConstraint=eastwest;top=0;left=0;right=0;bottom=0;" parent="j6owaacCCFAsNgO6bkA7-187" vertex="1">
          <mxGeometry y="150" width="200" height="30" as="geometry" />
        </mxCell>
        <mxCell id="j6owaacCCFAsNgO6bkA7-290" value="" style="shape=partialRectangle;connectable=0;fillColor=none;top=0;left=0;bottom=0;right=0;editable=1;overflow=hidden;" parent="j6owaacCCFAsNgO6bkA7-289" vertex="1">
          <mxGeometry width="30" height="30" as="geometry">
            <mxRectangle width="30" height="30" as="alternateBounds" />
          </mxGeometry>
        </mxCell>
        <mxCell id="j6owaacCCFAsNgO6bkA7-291" value="Status" style="shape=partialRectangle;connectable=0;fillColor=none;top=0;left=0;bottom=0;right=0;align=left;spacingLeft=6;overflow=hidden;" parent="j6owaacCCFAsNgO6bkA7-289" vertex="1">
          <mxGeometry x="30" width="170" height="30" as="geometry">
            <mxRectangle width="170" height="30" as="alternateBounds" />
          </mxGeometry>
        </mxCell>
        <mxCell id="j6owaacCCFAsNgO6bkA7-200" value="" style="edgeStyle=orthogonalEdgeStyle;fontSize=12;html=1;endArrow=ERoneToMany;startArrow=ERzeroToOne;rounded=0;entryX=-0.004;entryY=0.118;entryDx=0;entryDy=0;entryPerimeter=0;exitX=0.5;exitY=0;exitDx=0;exitDy=0;" parent="WIyWlLk6GJQsqaUBKTNV-1" source="j6owaacCCFAsNgO6bkA7-32" target="j6owaacCCFAsNgO6bkA7-85" edge="1">
          <mxGeometry width="100" height="100" relative="1" as="geometry">
            <mxPoint x="-765" y="-744" as="sourcePoint" />
            <mxPoint x="-405" y="-744" as="targetPoint" />
            <Array as="points">
              <mxPoint x="-760" y="-840" />
            </Array>
          </mxGeometry>
        </mxCell>
        <mxCell id="j6owaacCCFAsNgO6bkA7-201" value="Creation" style="edgeLabel;html=1;align=center;verticalAlign=middle;resizable=0;points=[];" parent="j6owaacCCFAsNgO6bkA7-200" vertex="1" connectable="0">
          <mxGeometry x="0.0462" y="2" relative="1" as="geometry">
            <mxPoint x="15" as="offset" />
          </mxGeometry>
        </mxCell>
        <mxCell id="j6owaacCCFAsNgO6bkA7-209" value="StudentExamQuestion&lt;div&gt;Choice&lt;/div&gt;" style="shape=rhombus;perimeter=rhombusPerimeter;whiteSpace=wrap;html=1;align=center;" parent="WIyWlLk6GJQsqaUBKTNV-1" vertex="1">
          <mxGeometry x="-325" y="-784" width="190" height="91" as="geometry" />
        </mxCell>
        <mxCell id="j6owaacCCFAsNgO6bkA7-210" value="" style="endArrow=none;html=1;rounded=0;exitX=1;exitY=0.5;exitDx=0;exitDy=0;entryX=0;entryY=1;entryDx=0;entryDy=0;" parent="WIyWlLk6GJQsqaUBKTNV-1" source="j6owaacCCFAsNgO6bkA7-144" target="j6owaacCCFAsNgO6bkA7-209" edge="1">
          <mxGeometry relative="1" as="geometry">
            <mxPoint x="-475" y="-444" as="sourcePoint" />
            <mxPoint x="-315" y="-444" as="targetPoint" />
          </mxGeometry>
        </mxCell>
        <mxCell id="j6owaacCCFAsNgO6bkA7-211" value="" style="endArrow=none;html=1;rounded=0;exitX=0;exitY=0;exitDx=0;exitDy=0;entryX=1;entryY=1;entryDx=0;entryDy=0;" parent="WIyWlLk6GJQsqaUBKTNV-1" source="j6owaacCCFAsNgO6bkA7-209" target="j6owaacCCFAsNgO6bkA7-85" edge="1">
          <mxGeometry relative="1" as="geometry">
            <mxPoint x="-417.5" y="-417.25" as="sourcePoint" />
            <mxPoint x="-393" y="-694" as="targetPoint" />
          </mxGeometry>
        </mxCell>
        <mxCell id="j6owaacCCFAsNgO6bkA7-212" value="" style="endArrow=none;html=1;rounded=0;exitX=0;exitY=1;exitDx=0;exitDy=0;entryX=1;entryY=0;entryDx=0;entryDy=0;" parent="WIyWlLk6GJQsqaUBKTNV-1" source="j6owaacCCFAsNgO6bkA7-104" target="j6owaacCCFAsNgO6bkA7-209" edge="1">
          <mxGeometry relative="1" as="geometry">
            <mxPoint x="-120" y="-364" as="sourcePoint" />
            <mxPoint x="-155" y="-474" as="targetPoint" />
          </mxGeometry>
        </mxCell>
        <mxCell id="j6owaacCCFAsNgO6bkA7-202" value="&lt;span style=&quot;text-wrap: wrap;&quot;&gt;StudentExamQuestion&lt;/span&gt;&lt;span style=&quot;text-wrap: wrap; background-color: initial;&quot;&gt;Choice&lt;/span&gt;" style="shape=table;startSize=30;container=1;collapsible=1;childLayout=tableLayout;fixedRows=1;rowLines=0;fontStyle=1;align=center;resizeLast=1;html=1;" parent="WIyWlLk6GJQsqaUBKTNV-1" vertex="1">
          <mxGeometry x="-245" y="-504" width="230" height="180" as="geometry">
            <mxRectangle x="-360" y="-450" width="190" height="30" as="alternateBounds" />
          </mxGeometry>
        </mxCell>
        <mxCell id="j6owaacCCFAsNgO6bkA7-203" value="" style="shape=tableRow;horizontal=0;startSize=0;swimlaneHead=0;swimlaneBody=0;fillColor=none;collapsible=0;dropTarget=0;points=[[0,0.5],[1,0.5]];portConstraint=eastwest;top=0;left=0;right=0;bottom=1;" parent="j6owaacCCFAsNgO6bkA7-202" vertex="1">
          <mxGeometry y="30" width="230" height="30" as="geometry" />
        </mxCell>
        <mxCell id="j6owaacCCFAsNgO6bkA7-204" value="PK" style="shape=partialRectangle;connectable=0;fillColor=none;top=0;left=0;bottom=0;right=0;fontStyle=1;overflow=hidden;whiteSpace=wrap;html=1;" parent="j6owaacCCFAsNgO6bkA7-203" vertex="1">
          <mxGeometry width="30" height="30" as="geometry">
            <mxRectangle width="30" height="30" as="alternateBounds" />
          </mxGeometry>
        </mxCell>
        <mxCell id="j6owaacCCFAsNgO6bkA7-205" value="UniqueID" style="shape=partialRectangle;connectable=0;fillColor=none;top=0;left=0;bottom=0;right=0;align=left;spacingLeft=6;fontStyle=5;overflow=hidden;whiteSpace=wrap;html=1;" parent="j6owaacCCFAsNgO6bkA7-203" vertex="1">
          <mxGeometry x="30" width="200" height="30" as="geometry">
            <mxRectangle width="200" height="30" as="alternateBounds" />
          </mxGeometry>
        </mxCell>
        <mxCell id="j6owaacCCFAsNgO6bkA7-216" value="" style="shape=tableRow;horizontal=0;startSize=0;swimlaneHead=0;swimlaneBody=0;fillColor=none;collapsible=0;dropTarget=0;points=[[0,0.5],[1,0.5]];portConstraint=eastwest;top=0;left=0;right=0;bottom=0;" parent="j6owaacCCFAsNgO6bkA7-202" vertex="1">
          <mxGeometry y="60" width="230" height="30" as="geometry" />
        </mxCell>
        <mxCell id="j6owaacCCFAsNgO6bkA7-217" value="FK" style="shape=partialRectangle;connectable=0;fillColor=none;top=0;left=0;bottom=0;right=0;fontStyle=0;overflow=hidden;whiteSpace=wrap;html=1;" parent="j6owaacCCFAsNgO6bkA7-216" vertex="1">
          <mxGeometry width="30" height="30" as="geometry">
            <mxRectangle width="30" height="30" as="alternateBounds" />
          </mxGeometry>
        </mxCell>
        <mxCell id="j6owaacCCFAsNgO6bkA7-218" value="StudentID [NOT NULL]" style="shape=partialRectangle;connectable=0;fillColor=none;top=0;left=0;bottom=0;right=0;align=left;spacingLeft=6;fontStyle=0;overflow=hidden;whiteSpace=wrap;html=1;" parent="j6owaacCCFAsNgO6bkA7-216" vertex="1">
          <mxGeometry x="30" width="200" height="30" as="geometry">
            <mxRectangle width="200" height="30" as="alternateBounds" />
          </mxGeometry>
        </mxCell>
        <mxCell id="j6owaacCCFAsNgO6bkA7-219" value="" style="shape=tableRow;horizontal=0;startSize=0;swimlaneHead=0;swimlaneBody=0;fillColor=none;collapsible=0;dropTarget=0;points=[[0,0.5],[1,0.5]];portConstraint=eastwest;top=0;left=0;right=0;bottom=0;" parent="j6owaacCCFAsNgO6bkA7-202" vertex="1">
          <mxGeometry y="90" width="230" height="30" as="geometry" />
        </mxCell>
        <mxCell id="j6owaacCCFAsNgO6bkA7-220" value="FK" style="shape=partialRectangle;connectable=0;fillColor=none;top=0;left=0;bottom=0;right=0;fontStyle=0;overflow=hidden;whiteSpace=wrap;html=1;" parent="j6owaacCCFAsNgO6bkA7-219" vertex="1">
          <mxGeometry width="30" height="30" as="geometry">
            <mxRectangle width="30" height="30" as="alternateBounds" />
          </mxGeometry>
        </mxCell>
        <mxCell id="j6owaacCCFAsNgO6bkA7-221" value="ExamID [NOT NULL]" style="shape=partialRectangle;connectable=0;fillColor=none;top=0;left=0;bottom=0;right=0;align=left;spacingLeft=6;fontStyle=0;overflow=hidden;whiteSpace=wrap;html=1;" parent="j6owaacCCFAsNgO6bkA7-219" vertex="1">
          <mxGeometry x="30" width="200" height="30" as="geometry">
            <mxRectangle width="200" height="30" as="alternateBounds" />
          </mxGeometry>
        </mxCell>
        <mxCell id="j6owaacCCFAsNgO6bkA7-225" value="" style="shape=tableRow;horizontal=0;startSize=0;swimlaneHead=0;swimlaneBody=0;fillColor=none;collapsible=0;dropTarget=0;points=[[0,0.5],[1,0.5]];portConstraint=eastwest;top=0;left=0;right=0;bottom=0;" parent="j6owaacCCFAsNgO6bkA7-202" vertex="1">
          <mxGeometry y="120" width="230" height="30" as="geometry" />
        </mxCell>
        <mxCell id="j6owaacCCFAsNgO6bkA7-226" value="FK" style="shape=partialRectangle;connectable=0;fillColor=none;top=0;left=0;bottom=0;right=0;fontStyle=0;overflow=hidden;whiteSpace=wrap;html=1;" parent="j6owaacCCFAsNgO6bkA7-225" vertex="1">
          <mxGeometry width="30" height="30" as="geometry">
            <mxRectangle width="30" height="30" as="alternateBounds" />
          </mxGeometry>
        </mxCell>
        <mxCell id="j6owaacCCFAsNgO6bkA7-227" value="QuestionID [NOT NULL]" style="shape=partialRectangle;connectable=0;fillColor=none;top=0;left=0;bottom=0;right=0;align=left;spacingLeft=6;fontStyle=0;overflow=hidden;whiteSpace=wrap;html=1;" parent="j6owaacCCFAsNgO6bkA7-225" vertex="1">
          <mxGeometry x="30" width="200" height="30" as="geometry">
            <mxRectangle width="200" height="30" as="alternateBounds" />
          </mxGeometry>
        </mxCell>
        <mxCell id="j6owaacCCFAsNgO6bkA7-222" value="" style="shape=tableRow;horizontal=0;startSize=0;swimlaneHead=0;swimlaneBody=0;fillColor=none;collapsible=0;dropTarget=0;points=[[0,0.5],[1,0.5]];portConstraint=eastwest;top=0;left=0;right=0;bottom=0;" parent="j6owaacCCFAsNgO6bkA7-202" vertex="1">
          <mxGeometry y="150" width="230" height="30" as="geometry" />
        </mxCell>
        <mxCell id="j6owaacCCFAsNgO6bkA7-223" value="FK" style="shape=partialRectangle;connectable=0;fillColor=none;top=0;left=0;bottom=0;right=0;editable=1;overflow=hidden;" parent="j6owaacCCFAsNgO6bkA7-222" vertex="1">
          <mxGeometry width="30" height="30" as="geometry">
            <mxRectangle width="30" height="30" as="alternateBounds" />
          </mxGeometry>
        </mxCell>
        <mxCell id="j6owaacCCFAsNgO6bkA7-224" value="StudentChoice [NOT NULL]" style="shape=partialRectangle;connectable=0;fillColor=none;top=0;left=0;bottom=0;right=0;align=left;spacingLeft=6;overflow=hidden;" parent="j6owaacCCFAsNgO6bkA7-222" vertex="1">
          <mxGeometry x="30" width="200" height="30" as="geometry">
            <mxRectangle width="200" height="30" as="alternateBounds" />
          </mxGeometry>
        </mxCell>
        <mxCell id="j6owaacCCFAsNgO6bkA7-231" value="" style="fontSize=12;html=1;endArrow=ERzeroToMany;endFill=1;startArrow=ERzeroToMany;rounded=0;exitX=0.5;exitY=0;exitDx=0;exitDy=0;entryX=0.5;entryY=1;entryDx=0;entryDy=0;" parent="WIyWlLk6GJQsqaUBKTNV-1" source="j6owaacCCFAsNgO6bkA7-144" target="j6owaacCCFAsNgO6bkA7-85" edge="1">
          <mxGeometry width="100" height="100" relative="1" as="geometry">
            <mxPoint x="-485" y="-324" as="sourcePoint" />
            <mxPoint x="-295" y="-744" as="targetPoint" />
          </mxGeometry>
        </mxCell>
        <mxCell id="j6owaacCCFAsNgO6bkA7-232" value="TakesExam" style="edgeLabel;html=1;align=center;verticalAlign=middle;resizable=0;points=[];" parent="j6owaacCCFAsNgO6bkA7-231" vertex="1" connectable="0">
          <mxGeometry x="-0.147" y="1" relative="1" as="geometry">
            <mxPoint x="1" y="-11" as="offset" />
          </mxGeometry>
        </mxCell>
        <mxCell id="j6owaacCCFAsNgO6bkA7-233" value="StudentExam" style="shape=table;startSize=30;container=1;collapsible=1;childLayout=tableLayout;fixedRows=1;rowLines=0;fontStyle=1;align=center;resizeLast=1;html=1;" parent="WIyWlLk6GJQsqaUBKTNV-1" vertex="1">
          <mxGeometry x="-530" y="-504" width="260" height="180" as="geometry" />
        </mxCell>
        <mxCell id="j6owaacCCFAsNgO6bkA7-234" value="" style="shape=tableRow;horizontal=0;startSize=0;swimlaneHead=0;swimlaneBody=0;fillColor=none;collapsible=0;dropTarget=0;points=[[0,0.5],[1,0.5]];portConstraint=eastwest;top=0;left=0;right=0;bottom=1;" parent="j6owaacCCFAsNgO6bkA7-233" vertex="1">
          <mxGeometry y="30" width="260" height="30" as="geometry" />
        </mxCell>
        <mxCell id="j6owaacCCFAsNgO6bkA7-235" value="PK" style="shape=partialRectangle;connectable=0;fillColor=none;top=0;left=0;bottom=0;right=0;fontStyle=1;overflow=hidden;whiteSpace=wrap;html=1;" parent="j6owaacCCFAsNgO6bkA7-234" vertex="1">
          <mxGeometry width="30" height="30" as="geometry">
            <mxRectangle width="30" height="30" as="alternateBounds" />
          </mxGeometry>
        </mxCell>
        <mxCell id="j6owaacCCFAsNgO6bkA7-236" value="UniqueID" style="shape=partialRectangle;connectable=0;fillColor=none;top=0;left=0;bottom=0;right=0;align=left;spacingLeft=6;fontStyle=5;overflow=hidden;whiteSpace=wrap;html=1;" parent="j6owaacCCFAsNgO6bkA7-234" vertex="1">
          <mxGeometry x="30" width="230" height="30" as="geometry">
            <mxRectangle width="230" height="30" as="alternateBounds" />
          </mxGeometry>
        </mxCell>
        <mxCell id="j6owaacCCFAsNgO6bkA7-237" value="" style="shape=tableRow;horizontal=0;startSize=0;swimlaneHead=0;swimlaneBody=0;fillColor=none;collapsible=0;dropTarget=0;points=[[0,0.5],[1,0.5]];portConstraint=eastwest;top=0;left=0;right=0;bottom=0;" parent="j6owaacCCFAsNgO6bkA7-233" vertex="1">
          <mxGeometry y="60" width="260" height="30" as="geometry" />
        </mxCell>
        <mxCell id="j6owaacCCFAsNgO6bkA7-238" value="FK" style="shape=partialRectangle;connectable=0;fillColor=none;top=0;left=0;bottom=0;right=0;fontStyle=0;overflow=hidden;whiteSpace=wrap;html=1;" parent="j6owaacCCFAsNgO6bkA7-237" vertex="1">
          <mxGeometry width="30" height="30" as="geometry">
            <mxRectangle width="30" height="30" as="alternateBounds" />
          </mxGeometry>
        </mxCell>
        <mxCell id="j6owaacCCFAsNgO6bkA7-239" value="StudentID [NOT NULL]" style="shape=partialRectangle;connectable=0;fillColor=none;top=0;left=0;bottom=0;right=0;align=left;spacingLeft=6;fontStyle=0;overflow=hidden;whiteSpace=wrap;html=1;" parent="j6owaacCCFAsNgO6bkA7-237" vertex="1">
          <mxGeometry x="30" width="230" height="30" as="geometry">
            <mxRectangle width="230" height="30" as="alternateBounds" />
          </mxGeometry>
        </mxCell>
        <mxCell id="j6owaacCCFAsNgO6bkA7-240" value="" style="shape=tableRow;horizontal=0;startSize=0;swimlaneHead=0;swimlaneBody=0;fillColor=none;collapsible=0;dropTarget=0;points=[[0,0.5],[1,0.5]];portConstraint=eastwest;top=0;left=0;right=0;bottom=0;" parent="j6owaacCCFAsNgO6bkA7-233" vertex="1">
          <mxGeometry y="90" width="260" height="30" as="geometry" />
        </mxCell>
        <mxCell id="j6owaacCCFAsNgO6bkA7-241" value="FK" style="shape=partialRectangle;connectable=0;fillColor=none;top=0;left=0;bottom=0;right=0;fontStyle=0;overflow=hidden;whiteSpace=wrap;html=1;" parent="j6owaacCCFAsNgO6bkA7-240" vertex="1">
          <mxGeometry width="30" height="30" as="geometry">
            <mxRectangle width="30" height="30" as="alternateBounds" />
          </mxGeometry>
        </mxCell>
        <mxCell id="j6owaacCCFAsNgO6bkA7-242" value="ExamID [NOT NULL]" style="shape=partialRectangle;connectable=0;fillColor=none;top=0;left=0;bottom=0;right=0;align=left;spacingLeft=6;fontStyle=0;overflow=hidden;whiteSpace=wrap;html=1;" parent="j6owaacCCFAsNgO6bkA7-240" vertex="1">
          <mxGeometry x="30" width="230" height="30" as="geometry">
            <mxRectangle width="230" height="30" as="alternateBounds" />
          </mxGeometry>
        </mxCell>
        <mxCell id="j6owaacCCFAsNgO6bkA7-255" value="" style="shape=tableRow;horizontal=0;startSize=0;swimlaneHead=0;swimlaneBody=0;fillColor=none;collapsible=0;dropTarget=0;points=[[0,0.5],[1,0.5]];portConstraint=eastwest;top=0;left=0;right=0;bottom=0;" parent="j6owaacCCFAsNgO6bkA7-233" vertex="1">
          <mxGeometry y="120" width="260" height="30" as="geometry" />
        </mxCell>
        <mxCell id="j6owaacCCFAsNgO6bkA7-256" value="" style="shape=partialRectangle;connectable=0;fillColor=none;top=0;left=0;bottom=0;right=0;editable=1;overflow=hidden;" parent="j6owaacCCFAsNgO6bkA7-255" vertex="1">
          <mxGeometry width="30" height="30" as="geometry">
            <mxRectangle width="30" height="30" as="alternateBounds" />
          </mxGeometry>
        </mxCell>
        <mxCell id="j6owaacCCFAsNgO6bkA7-257" value="StudentScore [NULL]" style="shape=partialRectangle;connectable=0;fillColor=none;top=0;left=0;bottom=0;right=0;align=left;spacingLeft=6;overflow=hidden;" parent="j6owaacCCFAsNgO6bkA7-255" vertex="1">
          <mxGeometry x="30" width="230" height="30" as="geometry">
            <mxRectangle width="230" height="30" as="alternateBounds" />
          </mxGeometry>
        </mxCell>
        <mxCell id="j6owaacCCFAsNgO6bkA7-252" value="" style="shape=tableRow;horizontal=0;startSize=0;swimlaneHead=0;swimlaneBody=0;fillColor=none;collapsible=0;dropTarget=0;points=[[0,0.5],[1,0.5]];portConstraint=eastwest;top=0;left=0;right=0;bottom=0;" parent="j6owaacCCFAsNgO6bkA7-233" vertex="1">
          <mxGeometry y="150" width="260" height="30" as="geometry" />
        </mxCell>
        <mxCell id="j6owaacCCFAsNgO6bkA7-253" value="" style="shape=partialRectangle;connectable=0;fillColor=none;top=0;left=0;bottom=0;right=0;editable=1;overflow=hidden;" parent="j6owaacCCFAsNgO6bkA7-252" vertex="1">
          <mxGeometry width="30" height="30" as="geometry">
            <mxRectangle width="30" height="30" as="alternateBounds" />
          </mxGeometry>
        </mxCell>
        <mxCell id="j6owaacCCFAsNgO6bkA7-254" value="InstructorFeedback [NULL]" style="shape=partialRectangle;connectable=0;fillColor=none;top=0;left=0;bottom=0;right=0;align=left;spacingLeft=6;overflow=hidden;" parent="j6owaacCCFAsNgO6bkA7-252" vertex="1">
          <mxGeometry x="30" width="230" height="30" as="geometry">
            <mxRectangle width="230" height="30" as="alternateBounds" />
          </mxGeometry>
        </mxCell>
        <mxCell id="j6owaacCCFAsNgO6bkA7-285" value="" style="fontSize=12;html=1;endArrow=ERzeroToOne;startArrow=ERzeroToOne;rounded=0;exitX=0.75;exitY=1;exitDx=0;exitDy=0;endFill=1;strokeColor=default;entryX=0.75;entryY=0;entryDx=0;entryDy=0;startFill=1;" parent="WIyWlLk6GJQsqaUBKTNV-1" source="j6owaacCCFAsNgO6bkA7-104" target="j6owaacCCFAsNgO6bkA7-134" edge="1">
          <mxGeometry width="100" height="100" relative="1" as="geometry">
            <mxPoint x="14.999999999999996" y="-804" as="sourcePoint" />
            <mxPoint x="-15" y="-744" as="targetPoint" />
          </mxGeometry>
        </mxCell>
        <mxCell id="j6owaacCCFAsNgO6bkA7-286" value="Have CorrectChoice" style="edgeLabel;html=1;align=center;verticalAlign=middle;resizable=0;points=[];" parent="j6owaacCCFAsNgO6bkA7-285" vertex="1" connectable="0">
          <mxGeometry x="-0.0549" y="2" relative="1" as="geometry">
            <mxPoint x="38" y="1" as="offset" />
          </mxGeometry>
        </mxCell>
        <mxCell id="j6owaacCCFAsNgO6bkA7-292" value="InstructorStudentCourse" style="shape=table;startSize=30;container=1;collapsible=1;childLayout=tableLayout;fixedRows=1;rowLines=0;fontStyle=1;align=center;resizeLast=1;html=1;" parent="WIyWlLk6GJQsqaUBKTNV-1" vertex="1">
          <mxGeometry x="-767.5" y="-1134" width="200" height="180" as="geometry" />
        </mxCell>
        <mxCell id="j6owaacCCFAsNgO6bkA7-293" value="" style="shape=tableRow;horizontal=0;startSize=0;swimlaneHead=0;swimlaneBody=0;fillColor=none;collapsible=0;dropTarget=0;points=[[0,0.5],[1,0.5]];portConstraint=eastwest;top=0;left=0;right=0;bottom=1;" parent="j6owaacCCFAsNgO6bkA7-292" vertex="1">
          <mxGeometry y="30" width="200" height="30" as="geometry" />
        </mxCell>
        <mxCell id="j6owaacCCFAsNgO6bkA7-294" value="PK" style="shape=partialRectangle;connectable=0;fillColor=none;top=0;left=0;bottom=0;right=0;fontStyle=1;overflow=hidden;whiteSpace=wrap;html=1;" parent="j6owaacCCFAsNgO6bkA7-293" vertex="1">
          <mxGeometry width="30" height="30" as="geometry">
            <mxRectangle width="30" height="30" as="alternateBounds" />
          </mxGeometry>
        </mxCell>
        <mxCell id="j6owaacCCFAsNgO6bkA7-295" value="UniqueID" style="shape=partialRectangle;connectable=0;fillColor=none;top=0;left=0;bottom=0;right=0;align=left;spacingLeft=6;fontStyle=5;overflow=hidden;whiteSpace=wrap;html=1;" parent="j6owaacCCFAsNgO6bkA7-293" vertex="1">
          <mxGeometry x="30" width="170" height="30" as="geometry">
            <mxRectangle width="170" height="30" as="alternateBounds" />
          </mxGeometry>
        </mxCell>
        <mxCell id="j6owaacCCFAsNgO6bkA7-296" value="" style="shape=tableRow;horizontal=0;startSize=0;swimlaneHead=0;swimlaneBody=0;fillColor=none;collapsible=0;dropTarget=0;points=[[0,0.5],[1,0.5]];portConstraint=eastwest;top=0;left=0;right=0;bottom=0;" parent="j6owaacCCFAsNgO6bkA7-292" vertex="1">
          <mxGeometry y="60" width="200" height="30" as="geometry" />
        </mxCell>
        <mxCell id="j6owaacCCFAsNgO6bkA7-297" value="FK" style="shape=partialRectangle;connectable=0;fillColor=none;top=0;left=0;bottom=0;right=0;fontStyle=0;overflow=hidden;whiteSpace=wrap;html=1;" parent="j6owaacCCFAsNgO6bkA7-296" vertex="1">
          <mxGeometry width="30" height="30" as="geometry">
            <mxRectangle width="30" height="30" as="alternateBounds" />
          </mxGeometry>
        </mxCell>
        <mxCell id="j6owaacCCFAsNgO6bkA7-298" value="StudentID [NOT NULL]" style="shape=partialRectangle;connectable=0;fillColor=none;top=0;left=0;bottom=0;right=0;align=left;spacingLeft=6;fontStyle=0;overflow=hidden;whiteSpace=wrap;html=1;" parent="j6owaacCCFAsNgO6bkA7-296" vertex="1">
          <mxGeometry x="30" width="170" height="30" as="geometry">
            <mxRectangle width="170" height="30" as="alternateBounds" />
          </mxGeometry>
        </mxCell>
        <mxCell id="j6owaacCCFAsNgO6bkA7-299" value="" style="shape=tableRow;horizontal=0;startSize=0;swimlaneHead=0;swimlaneBody=0;fillColor=none;collapsible=0;dropTarget=0;points=[[0,0.5],[1,0.5]];portConstraint=eastwest;top=0;left=0;right=0;bottom=0;" parent="j6owaacCCFAsNgO6bkA7-292" vertex="1">
          <mxGeometry y="90" width="200" height="30" as="geometry" />
        </mxCell>
        <mxCell id="j6owaacCCFAsNgO6bkA7-300" value="FK" style="shape=partialRectangle;connectable=0;fillColor=none;top=0;left=0;bottom=0;right=0;fontStyle=0;overflow=hidden;whiteSpace=wrap;html=1;" parent="j6owaacCCFAsNgO6bkA7-299" vertex="1">
          <mxGeometry width="30" height="30" as="geometry">
            <mxRectangle width="30" height="30" as="alternateBounds" />
          </mxGeometry>
        </mxCell>
        <mxCell id="j6owaacCCFAsNgO6bkA7-301" value="CourseID [NOT NULL]" style="shape=partialRectangle;connectable=0;fillColor=none;top=0;left=0;bottom=0;right=0;align=left;spacingLeft=6;fontStyle=0;overflow=hidden;whiteSpace=wrap;html=1;" parent="j6owaacCCFAsNgO6bkA7-299" vertex="1">
          <mxGeometry x="30" width="170" height="30" as="geometry">
            <mxRectangle width="170" height="30" as="alternateBounds" />
          </mxGeometry>
        </mxCell>
        <mxCell id="j6owaacCCFAsNgO6bkA7-302" value="" style="shape=tableRow;horizontal=0;startSize=0;swimlaneHead=0;swimlaneBody=0;fillColor=none;collapsible=0;dropTarget=0;points=[[0,0.5],[1,0.5]];portConstraint=eastwest;top=0;left=0;right=0;bottom=0;" parent="j6owaacCCFAsNgO6bkA7-292" vertex="1">
          <mxGeometry y="120" width="200" height="30" as="geometry" />
        </mxCell>
        <mxCell id="j6owaacCCFAsNgO6bkA7-303" value="FK" style="shape=partialRectangle;connectable=0;fillColor=none;top=0;left=0;bottom=0;right=0;editable=1;overflow=hidden;" parent="j6owaacCCFAsNgO6bkA7-302" vertex="1">
          <mxGeometry width="30" height="30" as="geometry">
            <mxRectangle width="30" height="30" as="alternateBounds" />
          </mxGeometry>
        </mxCell>
        <mxCell id="j6owaacCCFAsNgO6bkA7-304" value="InstructorId [NOT NULL]" style="shape=partialRectangle;connectable=0;fillColor=none;top=0;left=0;bottom=0;right=0;align=left;spacingLeft=6;overflow=hidden;" parent="j6owaacCCFAsNgO6bkA7-302" vertex="1">
          <mxGeometry x="30" width="170" height="30" as="geometry">
            <mxRectangle width="170" height="30" as="alternateBounds" />
          </mxGeometry>
        </mxCell>
        <mxCell id="j6owaacCCFAsNgO6bkA7-305" value="" style="shape=tableRow;horizontal=0;startSize=0;swimlaneHead=0;swimlaneBody=0;fillColor=none;collapsible=0;dropTarget=0;points=[[0,0.5],[1,0.5]];portConstraint=eastwest;top=0;left=0;right=0;bottom=0;" parent="j6owaacCCFAsNgO6bkA7-292" vertex="1">
          <mxGeometry y="150" width="200" height="30" as="geometry" />
        </mxCell>
        <mxCell id="j6owaacCCFAsNgO6bkA7-306" value="" style="shape=partialRectangle;connectable=0;fillColor=none;top=0;left=0;bottom=0;right=0;editable=1;overflow=hidden;" parent="j6owaacCCFAsNgO6bkA7-305" vertex="1">
          <mxGeometry width="30" height="30" as="geometry">
            <mxRectangle width="30" height="30" as="alternateBounds" />
          </mxGeometry>
        </mxCell>
        <mxCell id="j6owaacCCFAsNgO6bkA7-307" value="AssignDate" style="shape=partialRectangle;connectable=0;fillColor=none;top=0;left=0;bottom=0;right=0;align=left;spacingLeft=6;overflow=hidden;" parent="j6owaacCCFAsNgO6bkA7-305" vertex="1">
          <mxGeometry x="30" width="170" height="30" as="geometry">
            <mxRectangle width="170" height="30" as="alternateBounds" />
          </mxGeometry>
        </mxCell>
        <mxCell id="j6owaacCCFAsNgO6bkA7-308" value="Assign Courses" style="shape=rhombus;perimeter=rhombusPerimeter;whiteSpace=wrap;html=1;align=center;" parent="WIyWlLk6GJQsqaUBKTNV-1" vertex="1">
          <mxGeometry x="-635" y="-624" width="120" height="60" as="geometry" />
        </mxCell>
        <mxCell id="NI6I9KvdCHPT1CwrUrvd-1" value="" style="endArrow=none;html=1;rounded=0;exitX=0;exitY=0.5;exitDx=0;exitDy=0;entryX=1;entryY=0.5;entryDx=0;entryDy=0;" parent="WIyWlLk6GJQsqaUBKTNV-1" source="j6owaacCCFAsNgO6bkA7-134" target="j6owaacCCFAsNgO6bkA7-209" edge="1">
          <mxGeometry relative="1" as="geometry">
            <mxPoint x="72" y="-745.75" as="sourcePoint" />
            <mxPoint x="-85" y="-674" as="targetPoint" />
          </mxGeometry>
        </mxCell>
        <mxCell id="NI6I9KvdCHPT1CwrUrvd-2" value="" style="endArrow=none;html=1;rounded=0;entryX=0;entryY=0.5;entryDx=0;entryDy=0;exitX=0.5;exitY=1;exitDx=0;exitDy=0;" parent="WIyWlLk6GJQsqaUBKTNV-1" source="j6owaacCCFAsNgO6bkA7-32" target="j6owaacCCFAsNgO6bkA7-308" edge="1">
          <mxGeometry relative="1" as="geometry">
            <mxPoint x="-765" y="-894" as="sourcePoint" />
            <mxPoint x="-605" y="-894" as="targetPoint" />
          </mxGeometry>
        </mxCell>
        <mxCell id="NI6I9KvdCHPT1CwrUrvd-3" value="" style="endArrow=none;html=1;rounded=0;entryX=0.5;entryY=1;entryDx=0;entryDy=0;exitX=0.5;exitY=0;exitDx=0;exitDy=0;" parent="WIyWlLk6GJQsqaUBKTNV-1" source="j6owaacCCFAsNgO6bkA7-308" target="j6owaacCCFAsNgO6bkA7-50" edge="1">
          <mxGeometry relative="1" as="geometry">
            <mxPoint x="-574.5" y="-754" as="sourcePoint" />
            <mxPoint x="-512.5" y="-814" as="targetPoint" />
          </mxGeometry>
        </mxCell>
        <mxCell id="NI6I9KvdCHPT1CwrUrvd-4" value="" style="endArrow=none;html=1;rounded=0;entryX=0.5;entryY=1;entryDx=0;entryDy=0;exitX=1;exitY=0.5;exitDx=0;exitDy=0;" parent="WIyWlLk6GJQsqaUBKTNV-1" source="j6owaacCCFAsNgO6bkA7-308" target="j6owaacCCFAsNgO6bkA7-144" edge="1">
          <mxGeometry relative="1" as="geometry">
            <mxPoint x="-605" y="-744" as="sourcePoint" />
            <mxPoint x="-415" y="-769" as="targetPoint" />
          </mxGeometry>
        </mxCell>
        <mxCell id="NI6I9KvdCHPT1CwrUrvd-5" value="&lt;span style=&quot;text-wrap: wrap;&quot;&gt;StudentExamQuestion&lt;/span&gt;&lt;span style=&quot;text-wrap: wrap; background-color: initial;&quot;&gt;Choice&lt;/span&gt;" style="shape=table;startSize=30;container=1;collapsible=1;childLayout=tableLayout;fixedRows=1;rowLines=0;fontStyle=1;align=center;resizeLast=1;html=1;" parent="WIyWlLk6GJQsqaUBKTNV-1" vertex="1">
          <mxGeometry x="225" y="-504" width="230" height="150" as="geometry">
            <mxRectangle x="-360" y="-450" width="190" height="30" as="alternateBounds" />
          </mxGeometry>
        </mxCell>
        <mxCell id="NI6I9KvdCHPT1CwrUrvd-6" value="" style="shape=tableRow;horizontal=0;startSize=0;swimlaneHead=0;swimlaneBody=0;fillColor=none;collapsible=0;dropTarget=0;points=[[0,0.5],[1,0.5]];portConstraint=eastwest;top=0;left=0;right=0;bottom=1;" parent="NI6I9KvdCHPT1CwrUrvd-5" vertex="1">
          <mxGeometry y="30" width="230" height="30" as="geometry" />
        </mxCell>
        <mxCell id="NI6I9KvdCHPT1CwrUrvd-7" value="PK" style="shape=partialRectangle;connectable=0;fillColor=none;top=0;left=0;bottom=0;right=0;fontStyle=1;overflow=hidden;whiteSpace=wrap;html=1;" parent="NI6I9KvdCHPT1CwrUrvd-6" vertex="1">
          <mxGeometry width="30" height="30" as="geometry">
            <mxRectangle width="30" height="30" as="alternateBounds" />
          </mxGeometry>
        </mxCell>
        <mxCell id="NI6I9KvdCHPT1CwrUrvd-8" value="UniqueID" style="shape=partialRectangle;connectable=0;fillColor=none;top=0;left=0;bottom=0;right=0;align=left;spacingLeft=6;fontStyle=5;overflow=hidden;whiteSpace=wrap;html=1;" parent="NI6I9KvdCHPT1CwrUrvd-6" vertex="1">
          <mxGeometry x="30" width="200" height="30" as="geometry">
            <mxRectangle width="200" height="30" as="alternateBounds" />
          </mxGeometry>
        </mxCell>
        <mxCell id="NI6I9KvdCHPT1CwrUrvd-9" value="" style="shape=tableRow;horizontal=0;startSize=0;swimlaneHead=0;swimlaneBody=0;fillColor=none;collapsible=0;dropTarget=0;points=[[0,0.5],[1,0.5]];portConstraint=eastwest;top=0;left=0;right=0;bottom=0;" parent="NI6I9KvdCHPT1CwrUrvd-5" vertex="1">
          <mxGeometry y="60" width="230" height="30" as="geometry" />
        </mxCell>
        <mxCell id="NI6I9KvdCHPT1CwrUrvd-10" value="FK" style="shape=partialRectangle;connectable=0;fillColor=none;top=0;left=0;bottom=0;right=0;fontStyle=0;overflow=hidden;whiteSpace=wrap;html=1;" parent="NI6I9KvdCHPT1CwrUrvd-9" vertex="1">
          <mxGeometry width="30" height="30" as="geometry">
            <mxRectangle width="30" height="30" as="alternateBounds" />
          </mxGeometry>
        </mxCell>
        <mxCell id="NI6I9KvdCHPT1CwrUrvd-11" value="StudentID [NOT NULL]" style="shape=partialRectangle;connectable=0;fillColor=none;top=0;left=0;bottom=0;right=0;align=left;spacingLeft=6;fontStyle=0;overflow=hidden;whiteSpace=wrap;html=1;" parent="NI6I9KvdCHPT1CwrUrvd-9" vertex="1">
          <mxGeometry x="30" width="200" height="30" as="geometry">
            <mxRectangle width="200" height="30" as="alternateBounds" />
          </mxGeometry>
        </mxCell>
        <mxCell id="NI6I9KvdCHPT1CwrUrvd-15" value="" style="shape=tableRow;horizontal=0;startSize=0;swimlaneHead=0;swimlaneBody=0;fillColor=none;collapsible=0;dropTarget=0;points=[[0,0.5],[1,0.5]];portConstraint=eastwest;top=0;left=0;right=0;bottom=0;" parent="NI6I9KvdCHPT1CwrUrvd-5" vertex="1">
          <mxGeometry y="90" width="230" height="30" as="geometry" />
        </mxCell>
        <mxCell id="NI6I9KvdCHPT1CwrUrvd-16" value="FK" style="shape=partialRectangle;connectable=0;fillColor=none;top=0;left=0;bottom=0;right=0;fontStyle=0;overflow=hidden;whiteSpace=wrap;html=1;" parent="NI6I9KvdCHPT1CwrUrvd-15" vertex="1">
          <mxGeometry width="30" height="30" as="geometry">
            <mxRectangle width="30" height="30" as="alternateBounds" />
          </mxGeometry>
        </mxCell>
        <mxCell id="NI6I9KvdCHPT1CwrUrvd-17" value="ExamQuestionID [NOT NULL]" style="shape=partialRectangle;connectable=0;fillColor=none;top=0;left=0;bottom=0;right=0;align=left;spacingLeft=6;fontStyle=0;overflow=hidden;whiteSpace=wrap;html=1;" parent="NI6I9KvdCHPT1CwrUrvd-15" vertex="1">
          <mxGeometry x="30" width="200" height="30" as="geometry">
            <mxRectangle width="200" height="30" as="alternateBounds" />
          </mxGeometry>
        </mxCell>
        <mxCell id="NI6I9KvdCHPT1CwrUrvd-18" value="" style="shape=tableRow;horizontal=0;startSize=0;swimlaneHead=0;swimlaneBody=0;fillColor=none;collapsible=0;dropTarget=0;points=[[0,0.5],[1,0.5]];portConstraint=eastwest;top=0;left=0;right=0;bottom=0;" parent="NI6I9KvdCHPT1CwrUrvd-5" vertex="1">
          <mxGeometry y="120" width="230" height="30" as="geometry" />
        </mxCell>
        <mxCell id="NI6I9KvdCHPT1CwrUrvd-19" value="FK" style="shape=partialRectangle;connectable=0;fillColor=none;top=0;left=0;bottom=0;right=0;editable=1;overflow=hidden;" parent="NI6I9KvdCHPT1CwrUrvd-18" vertex="1">
          <mxGeometry width="30" height="30" as="geometry">
            <mxRectangle width="30" height="30" as="alternateBounds" />
          </mxGeometry>
        </mxCell>
        <mxCell id="NI6I9KvdCHPT1CwrUrvd-20" value="StudentChoice [NOT NULL]" style="shape=partialRectangle;connectable=0;fillColor=none;top=0;left=0;bottom=0;right=0;align=left;spacingLeft=6;overflow=hidden;" parent="NI6I9KvdCHPT1CwrUrvd-18" vertex="1">
          <mxGeometry x="30" width="200" height="30" as="geometry">
            <mxRectangle width="200" height="30" as="alternateBounds" />
          </mxGeometry>
        </mxCell>
        <mxCell id="NI6I9KvdCHPT1CwrUrvd-27" value="Reusing ExamQuestion Table" style="endArrow=block;endSize=16;endFill=0;html=1;rounded=0;" parent="WIyWlLk6GJQsqaUBKTNV-1" edge="1">
          <mxGeometry width="160" relative="1" as="geometry">
            <mxPoint x="-5" y="-384.24" as="sourcePoint" />
            <mxPoint x="205" y="-384" as="targetPoint" />
          </mxGeometry>
        </mxCell>
      </root>
    </mxGraphModel>
  </diagram>
</mxfile>
